<?xml version="1.0" standalone="no"?>
<!DOCTYPE svg PUBLIC "-//W3C//DTD SVG 1.1//EN" "http://www.w3.org/Graphics/SVG/1.1/DTD/svg11.dtd" >
<svg>
<metadata>
Created by FontForge 20110222 at Mon Mar  7 08:14:33 2011
 By www-data
PlainBlack (C) Copyright PJl '02
</metadata>
<defs>
<font id="PlainBlackWide-Normal" horiz-adv-x="260" >
  <font-face 
    font-family="PlainBlackWide"
    font-weight="400"
    font-stretch="normal"
    units-per-em="1000"
    panose-1="2 2 0 0 0 0 0 0 0 0"
    ascent="800"
    descent="-200"
    x-height="582"
    cap-height="900"
    bbox="19.9661 -347 1522 948"
    underline-thickness="16"
    underline-position="-98"
    unicode-range="U+0020-201D"
  />
    <missing-glyph />
    <glyph glyph-name="space" unicode=" " horiz-adv-x="406" 
 />
    <glyph glyph-name="exclam" unicode="!" horiz-adv-x="330" 
d="M303 798q0 -24 -10 -62t-23.5 -78t-25.5 -74.5t-17 -49.5q-4 -14 -8 -25.5t-7 -25t-4.5 -32.5t-1.5 -47q0 -33 6 -55.5t9.5 -36t0 -19.5t-21.5 -6q-14 0 -30.5 22.5t-31.5 56t-26 74t-15 76.5l26 170q-1 17 -6.5 37t-14.5 35t-22.5 21.5t-31.5 -4.5h-21q0 3 -3.5 5
t-3.5 5q0 5 34.5 21t81.5 42q1 0 17 10.5t36.5 23t40 23t27.5 10.5q16 0 31 -29t15 -88zM310 119q0 -12 -31.5 -37t-77.5 -70q-5 3 -23 16t-38.5 29.5t-36 33t-15.5 26.5q0 3 15 19t33.5 33.5t35.5 31.5t20 14q2 0 21 -13.5t40.5 -31t39 -33t17.5 -18.5z" />
    <glyph glyph-name="quotedbl" unicode="&#x22;" horiz-adv-x="497" 
d="M238 809q0 -5 -4.5 -10t-15 -14.5t-28.5 -25t-45 -41.5q-26 -24 -39 -41t-19.5 -27t-10 -14.5t-10.5 -4.5q-18 0 -18 17q0 3 8.5 14.5t18.5 25t18.5 25.5t8.5 15q0 12 -13 20t-28 14.5t-28 14t-13 18.5q45 38 74.5 61.5t39.5 27.5q44 -32 72 -51t32 -24zM477 806
q0 -5 -4.5 -10t-15 -14.5t-28.5 -25t-45 -41.5q-26 -24 -39 -41t-19.5 -27t-10 -14.5t-10.5 -4.5q-18 0 -18 17q0 3 8.5 14.5t19 25t19 25.5t8.5 15q0 12 -13 20t-28 14.5t-28 14t-13 18.5q44 38 73 61.5t40 27.5q43 -31 71.5 -51t32.5 -24z" />
    <glyph glyph-name="ampersand" unicode="&#x26;" horiz-adv-x="797" 
d="M777 206q0 -7 -7 -16t-16 -20.5t-16.5 -24.5t-7.5 -28q0 -1 -16 -26t-37.5 -55t-43 -55t-30.5 -25q-13 0 -36 18.5t-46 41.5t-43.5 45t-29.5 28q-1 -1 -29 -26.5t-64 -56t-68.5 -55.5t-42.5 -25q-6 0 -41.5 23t-78.5 70q-39 43 -71.5 94t-32.5 103t24.5 94t55 74.5
t57.5 55t32 34.5l-81 172q-6 -6 15.5 7.5t56 37t76.5 52t77 54t57 42.5t18 17q3 0 20 -9t37 -26t35.5 -42.5t15.5 -57.5q0 -51 -36.5 -97t-124.5 -96q2 -6 25 -43.5t52 -83t57 -86t41 -51.5q17 8 27.5 21t15.5 26.5t7 25.5t2 18q0 32 -30 58.5t-73 26.5v21q47 36 69 62
t32.5 42.5t15.5 24t17 7.5q10 0 16 -6t12.5 -16.5t15 -24.5t23.5 -30q6 -7 16 -15t19.5 -17t16.5 -19t7 -19q0 -10 -7.5 -16t-18 -10t-21.5 -8t-19 -10q-7 -6 -19 -25t-23 -40t-19.5 -38.5t-8.5 -19.5q-11 -21 -16 -49t1.5 -53t28 -42.5t64.5 -17.5q11 0 21.5 16t20 35.5
t18 35.5t13.5 16q1 0 12 -5t11 -13zM390 647q0 34 -19 61.5t-46 40.5q-13 -12 -26 -18.5t-26 -24.5l71 -143q0 1 5 2.5t6 1.5q14 18 24.5 33.5t10.5 46.5zM408 126q0 6 -5.5 12.5t-17.5 21t-32 41t-49 71.5q-34 53 -48.5 87.5t-38.5 53.5q-7 -28 -14.5 -48t-7.5 -40
q-1 -54 22.5 -97.5t53.5 -75.5t57 -52t33 -27q14 11 30.5 26t16.5 27z" />
    <glyph glyph-name="quotesingle" unicode="'" horiz-adv-x="258" 
d="M238 809q0 -5 -4.5 -10t-15 -14.5t-28.5 -25t-45 -41.5q-26 -24 -39 -41t-19.5 -27t-10 -14.5t-10.5 -4.5q-18 0 -18 17q0 3 8.5 14.5t18.5 25t18.5 25.5t8.5 15q0 12 -13 20t-28 14.5t-28 14t-13 18.5q45 38 74.5 61.5t39.5 27.5q44 -32 72 -51t32 -24z" />
    <glyph glyph-name="comma" unicode="," 
d="M240 48q0 -8 -10.5 -16.5t-32 -26.5t-52.5 -49.5t-71 -85.5q-7 2 -10 2.5t-7 1.5v16q15 25 25 39t16 21.5l8 10t2 3.5q0 5 -14 13.5t-30 18.5t-30 20t-14 17q46 41 77.5 66t39.5 29q95 -65 103 -80z" />
    <glyph glyph-name="hyphen" unicode="-" horiz-adv-x="421" 
d="M401 322q0 -41 -26.5 -68t-81.5 -27h-273q4 12 10 27t12.5 29.5t13.5 26.5t13 16l328 7l2 -6t2 -5z" />
    <glyph glyph-name="period" unicode="." horiz-adv-x="248" 
d="M228 53q0 -8 -29 -37.5t-73 -61.5q-8 4 -25 17.5t-35 29t-32 29t-14 17.5q32 32 56 57.5t43 47.5q3 -2 20.5 -16t37 -31t35.5 -32.5t16 -19.5z" />
    <glyph glyph-name="zero" unicode="0" horiz-adv-x="683" 
d="M663 773v-16q-30 -24 -45.5 -38t-22.5 -30t-7.5 -39t-1.5 -65q-2 -68 -3.5 -124t-3 -109t-1.5 -109t3 -124q0 -12 9.5 -18.5t14.5 -9.5q-9 -9 -20.5 -10.5t-33 -2t-56.5 -5.5t-90 -21q-75 -22 -127.5 -51t-73.5 -40h-15q-18 33 -46.5 50t-55.5 28.5t-47 21t-20 26.5v610
q19 5 69.5 9t119.5 23q56 15 91.5 31t57 28.5t31.5 20.5t14 8q9 0 30.5 -15t48 -33t52.5 -33t42 -15q6 0 15 9l19.5 19.5t24 18t28.5 5.5zM414 171v450q0 11 -1 20t-8 17q-20 11 -53.5 29.5t-65 26.5t-54.5 -4t-23 -63v-513q20 -7 41.5 -19.5t40.5 -24.5t33 -21t18 -9
q42 0 57 26.5t15 84.5z" />
    <glyph glyph-name="one" unicode="1" horiz-adv-x="534" 
d="M514 143q1 -8 -19.5 -32.5t-46 -50.5t-47.5 -46.5t-24 -20.5q-18 0 -42.5 15.5t-48 35t-41.5 37.5t-24 23q-11 -8 -18 -16t-16 -17t-21.5 -18t-33.5 -18q-5 5 -9.5 8.5t-4.5 9.5q0 3 15.5 16.5t34 32t34 39.5t15.5 41v464q0 11 -6.5 26t-17.5 28.5t-27 22.5t-36 9
l-90 -35q-14 5 -17 9t-3 12q0 7 27 17.5t85 29.5q34 11 54 22t32 19.5t19 13.5t14 5q24 -11 44.5 -24t35.5 -33t24 -48.5t11 -69.5v-472q0 -12 9 -23t21.5 -20.5t25 -17t20.5 -10.5q8 7 20.5 18.5t24 20.5t19.5 10t8 -13z" />
    <glyph glyph-name="two" unicode="2" horiz-adv-x="755" 
d="M735 158q0 -8 -18 -24.5t-43.5 -39.5t-52.5 -52t-45 -62h-17q-58 46 -126.5 61t-128.5 15q-38 0 -77.5 -10.5t-74 -23.5t-60.5 -23.5t-38 -10.5q-11 0 -22.5 15.5t-11.5 39.5t6.5 54.5t25.5 66t54.5 76.5t93.5 87q50 39 88 56t67 23t49.5 7t34 8.5t21.5 27t12 62.5
q3 37 3 64.5t2 65.5q0 7 0.5 22t-2 30.5t-10.5 27t-25 11.5q-7 0 -21.5 -11.5t-40 -25.5t-63.5 -25.5t-93 -11.5q-16 0 -42.5 11.5t-52 27.5t-43.5 34t-18 30q0 13 21 6.5t48 -6.5q51 0 85 21.5t76 65.5q42 -37 69 -56.5t52 -29.5t56 -13.5t82 -8.5q18 -2 28.5 -4.5
t18.5 -3.5t15.5 -0.5t19.5 4.5h17q-7 -15 -17.5 -33t-10.5 -26v-238q0 -15 7.5 -20.5t13.5 -9.5t7 -12t-12 -29q-20 9 -33.5 13.5t-26 5.5t-26 0.5t-32.5 -0.5q-171 0 -275.5 -72.5t-172.5 -211.5l4 -21q44 22 80.5 42.5t73.5 36t78 24.5t93 9q53 0 96 -10t74.5 -22
t49.5 -22t21 -10q13 0 20.5 7t14 15.5t13.5 15.5t19 7q15 0 18.5 -6t3.5 -11z" />
    <glyph glyph-name="three" unicode="3" horiz-adv-x="752" 
d="M732 72q-16 -4 -48 -4t-74 -3t-90.5 -11t-97.5 -29q-14 -6 -31.5 -20.5t-51.5 -30.5q-21 17 -37.5 29.5t-34 21t-37.5 13t-47 4.5q-26 0 -47 -5t-39.5 -11.5t-35.5 -12t-35 -5.5q0 3 -3 5t-3 6q0 1 17 22.5t53 47t92 46.5t134 21q62 0 96 -11t53.5 -24.5t31 -24.5
t28.5 -11q12 0 18.5 26.5t9.5 61.5t3.5 69.5t0.5 51.5q0 37 -5.5 55.5t-16.5 27.5t-26 13t-35 10q-1 0 -7.5 3.5t-15.5 7.5t-18.5 7t-15.5 3q-14 0 -24 -9.5t-37 -22.5q-1 1 -4 8.5t-6 16t-5.5 15.5t-1.5 7q0 16 10.5 21.5t24.5 5t28.5 -3.5t22.5 -3q54 0 81 19t38 43
t11.5 45.5t1.5 26.5l-17 143q-13 5 -28 -6t-38.5 -26.5t-59 -29t-89.5 -13.5q-18 0 -51 10.5t-65.5 26t-56.5 32.5t-24 30q0 3 3.5 6t3.5 7q74 0 122 11t76.5 24t41 24t15.5 11l23 -16t59 -34.5t81 -32t91 -8.5h81q-4 -26 -11 -49.5t-10 -33.5q-1 -24 -2 -39.5t-1 -28
t0.5 -24t2.5 -27.5q2 -17 11.5 -40t16.5 -43q-33 -2 -55.5 0.5t-60.5 2.5q-12 0 -31.5 -1t-42 -4t-46 -9.5t-43.5 -16.5q8 -7 27 -15.5t51 -14t79 -6t111 7.5q0 -3 -4 -15.5t-9 -39.5t-9.5 -70t-4.5 -106q0 -24 4.5 -39t10.5 -25.5t12.5 -19.5t10.5 -21z" />
    <glyph glyph-name="four" unicode="4" horiz-adv-x="776" 
d="M756 122q0 -4 -23 -27.5t-53 -50t-58 -48t-39 -21.5q-3 0 -24.5 12t-46.5 33t-47 49.5t-27 62.5q-4 26 1 42t-1 25.5t-32 13t-92 3.5h-216q-41 0 -59.5 5.5t-18.5 31.5q0 71 33.5 119.5t90.5 101l133 122.5t161 185q11 -13 12 -23t7 -24q9 22 10.5 44t1.5 59q6 -4 14 -12
t28 -22t57 -35.5t101 -53.5q-14 -20 -43 -11q-2 -3 -6 -43.5t-8 -94.5t-6.5 -111t-2.5 -93q3 -33 2.5 -54t1.5 -33.5t9.5 -17.5t27.5 -5q30 0 47.5 14.5t42.5 24.5q4 -8 6 -24.5t2.5 -35t-1.5 -36t-7 -26.5q-9 6 -15 11t-13 9t-16.5 9.5t-26.5 13.5h-56q-3 -9 -7 -17.5
t-4 -17.5q0 -4 7.5 -19t18.5 -31t24 -28.5t24 -12.5q7 0 16.5 6.5t18.5 15.5t16 17.5t9 12.5h17q1 -4 5 -7.5t4 -7.5zM433 255l19 470q-1 -57 -40.5 -118t-87.5 -120t-87.5 -111.5t-40.5 -92.5q0 -15 11 -19.5t29.5 -5t42 0t46.5 -3.5h108z" />
    <glyph glyph-name="five" unicode="5" horiz-adv-x="742" 
d="M722 500q0 -11 -10 -20.5t-23 -26.5t-23.5 -46.5t-10.5 -81.5q0 -16 -2 -37t-4 -44t-4 -45.5t-2 -41.5q0 -45 5 -65.5t10 -31t7.5 -17.5t-1.5 -24q-38 12 -60 16.5t-34 4.5q-58 0 -102.5 -10.5t-78 -25t-56.5 -29t-38 -23.5l-14.5 14.5t-31 24.5t-47 23.5t-62.5 10.5
q-9 0 -29 -10.5t-40.5 -20.5t-35.5 -13.5t-15 10.5q0 7 13 30t40 47.5t68.5 43.5t97.5 19q40 0 75 -7t64.5 -17.5t52.5 -22t39 -20.5q18 13 21.5 59t3.5 113q0 26 -0.5 52t-6.5 50.5t-20 45.5t-41 36q-36 21 -71.5 11t-70.5 -30t-70 -40.5t-71 -20.5q-9 0 -17.5 3.5
t-8.5 16.5q0 11 11.5 23t15.5 21q7 20 14 122t-10 283q20 3 28.5 3.5t22.5 0.5q42 0 72 -5t57.5 -11t56 -11t66.5 -5q55 0 97.5 8t74 18.5t53 20t35.5 12.5v-31q-13 -21 -32.5 -46.5t-50 -47.5t-74 -37t-103.5 -15q-41 0 -64.5 3t-40.5 6t-34 5.5t-46 2.5q-3 0 -13.5 -1.5
t-36.5 -1.5l-26 -270q15 0 44 9t64.5 22.5t73 29.5t68.5 29.5t51 23t21 9.5q11 0 26 -9.5t32.5 -22t36 -26t36.5 -21.5q20 17 31 28t25 28h17l2.5 -3t2.5 -4z" />
    <glyph glyph-name="six" unicode="6" horiz-adv-x="722" 
d="M702 505q0 -12 -10.5 -21.5t-23.5 -24.5t-23.5 -39t-10.5 -65q0 -37 -0.5 -68t0 -61t2.5 -61t6 -69q1 -6 5.5 -9t9.5 -6v-22q-14 -2 -21 -2.5t-12.5 0t-11 1.5t-16.5 1q-74 0 -130.5 -14.5t-96.5 -32t-64.5 -32t-34.5 -14.5q-6 0 -31.5 16t-55.5 36t-57.5 36t-37.5 16
q-4 0 -21 -15t-26 -34q-15 4 -21 4v17q23 27 40.5 48.5t19.5 53.5q3 76 5.5 138t3.5 121t1 121t-3 138q0 4 -6.5 15.5t-9.5 32.5q17 3 36 5t37 3.5t32.5 2.5t22.5 4q67 21 116 42.5t82.5 40.5t55 31.5t34.5 15.5q0 -9 -4.5 -19t-2 -20.5t18 -23.5t54.5 -28q36 -14 60 -14
t38 3.5t20.5 5t6.5 -9.5q0 -4 -13 -17t-38 -27.5t-63.5 -25.5t-89.5 -11q-46 0 -77.5 10t-52.5 22t-33.5 21.5t-20.5 9.5q-21 0 -29.5 -15.5t-8.5 -29.5v-258l4.5 -1.5t5.5 -1.5q18 0 55 18t75.5 39.5t68.5 39.5t33 18q14 0 28.5 -11.5t30.5 -25.5t33.5 -25.5t37.5 -11.5
q5 0 8 1t8.5 6t15 15t27.5 28h15q1 -3 2.5 -4.5t1.5 -6.5zM472 77l6 178q0 16 -0.5 39.5t-1.5 46t-2 39.5t-2 20q-2 5 -15 13t-27.5 15t-25 12t-7.5 5q-23 0 -49 -11t-47.5 -25t-35 -27t-13.5 -17v-221q0 -8 11.5 -17.5t30 -20.5t41 -24.5t44.5 -28.5q8 6 22.5 10.5
t29.5 7.5t26.5 4.5t14.5 1.5z" />
    <glyph glyph-name="seven" unicode="7" horiz-adv-x="713" 
d="M693 840v-39q-28 -70 -67 -121.5t-80.5 -93t-83 -76.5t-74 -73t-52.5 -82t-20 -103q0 -18 8 -40.5t21 -42t30 -33t35 -13.5q12 0 20 5t16 12.5t17.5 17.5t23.5 20q7 -4 12.5 -7t5.5 -11q0 -15 -28 -35.5t-72 -65.5q-28 -29 -42.5 -47.5t-21.5 -29t-10.5 -14.5t-9.5 -4
q-9 0 -39 13t-62.5 40t-58 69t-25.5 99q0 66 28 119.5t64 92.5t68.5 63t41.5 32q94 84 154 129t95 71.5t50 43.5t19 45q-61 -47 -119 -75t-108.5 -43t-91.5 -19.5t-68 -4.5q-47 0 -81 5.5t-56 12.5t-34 12.5t-16 5.5q-7 0 -9.5 -5.5t-5 -12.5t-7.5 -12.5t-17 -5.5
q-11 0 -15 4t-8 10l141 172q31 -13 51 -24.5t41 -20t48.5 -13.5t71.5 -5q78 0 130 11t87.5 25t59 26.5t43.5 15.5z" />
    <glyph glyph-name="eight" unicode="8" horiz-adv-x="679" 
d="M659 770q0 -5 -6.5 -13t-14 -20t-13.5 -28.5t-5 -39.5q2 -32 1.5 -58.5t-1.5 -52t-2.5 -52t-1.5 -58.5q-56 0 -93.5 -3t-62.5 -6.5t-38 -7t-19 -3.5l-11 -8q29 -15 77.5 -26t146.5 -11q1 -5 5 -17t4 -22v-253q-24 -6 -37.5 -8.5t-21 -3.5t-11.5 -0.5t-7 0.5
q-60 -18 -99 -39t-64 -38t-39.5 -28.5t-26.5 -11.5q-22 0 -48.5 18.5t-55.5 41t-60 41t-63 18.5q-4 0 -8 -5.5t-11 -13t-18 -15t-27 -11.5q-2 2 -5 4.5t-3 6.5q0 11 8.5 17t18.5 13.5t18.5 17.5t8.5 28v214q0 9 -16 18v17q81 3 140 18.5t82 24.5q-26 14 -58.5 19.5t-61.5 7
t-49.5 0.5t-21.5 -1q-14 0 -16.5 10.5t0 31.5t7 52t4.5 71q-1 32 -7 56t-12 46q11 5 45 14.5t80 25.5t99 38.5t103 53.5q6 -5 32.5 -22.5t59 -36.5t64 -34t46.5 -15q13 0 22.5 13.5t30.5 29.5q1 0 6.5 -0.5t5.5 -4.5zM459 463l6 151q1 14 -7 24t-29 23t-58.5 33t-95.5 55
q-8 -5 -15.5 -7t-13 -5t-9 -9t-3.5 -20v-234q35 -10 68 -21.5t38 -11.5q6 0 20 3t31 7t35 7.5t33 4.5zM465 338q-3 31 -34 42.5t-70.5 11.5t-76 -9t-50.5 -19v-202q42 -16 76.5 -34.5t59.5 -34.5t38.5 -26.5l13.5 -10.5q16 0 26 10t11 41q1 34 2 61.5t1.5 54t1 54.5t1.5 61z
" />
    <glyph glyph-name="nine" unicode="9" horiz-adv-x="693" 
d="M673 784q0 -4 -8 -13t-18 -19t-18 -18.5t-8 -12.5q-5 -85 -5 -155t2 -136.5t5 -136.5t5 -156q6 -4 12 -7t15 -5v-13q-79 -20 -122 -31.5t-73 -24t-58 -32t-77 -55.5q-43 31 -79 46.5t-70 19.5t-69.5 0t-79.5 -10q-1 5 -4 7.5t-3 6.5q0 10 20.5 28.5t58 36.5t91.5 31.5
t122 13.5q39 0 67 -7.5t72 -13.5l1 226l-9 5l-189 -112q-3 1 -27 12t-53.5 26t-57.5 31t-38 26v372q70 0 129 21t104 46.5t73 46.5t36 21q19 0 40.5 -14t46 -31.5t50.5 -31.5t54 -14q2 2 16 11t30 16.5t16 -1.5zM452 678q-26 8 -48 21t-39.5 25t-30 20.5t-18.5 8.5
q-7 0 -18 -4.5t-21.5 -10.5t-19 -12t-10.5 -8v-294q0 -14 11.5 -27t28 -23.5t33 -17t27.5 -6.5q3 0 18.5 7.5t32.5 16.5t31 16.5l14 7.5q0 22 1 45t3 46q2 28 3 50.5t1.5 44t0.5 44v50.5z" />
    <glyph glyph-name="colon" unicode=":" horiz-adv-x="264" 
d="M240 412q0 -2 -11 -13.5t-27.5 -27t-36 -32.5t-38.5 -30q0 1 -17 15.5t-37 32.5t-36.5 35.5t-16.5 23.5q35 41 60 66t46 29q4 0 22.5 -13.5t39 -30.5t36.5 -33t16 -22zM244 53q0 -14 -29 -35.5t-83 -65.5h-10q-5 6 -21.5 22.5t-34 34.5t-31 33.5t-13.5 19.5
q41 40 69.5 64.5t39.5 27.5q3 0 21 -12t38 -28.5t37 -33.5t17 -27z" />
    <glyph glyph-name="semicolon" unicode=";" 
d="M240 415q0 -3 -9.5 -14.5t-24.5 -27t-34 -32.5t-37 -31q-3 1 -20 14.5t-37 31t-36 34t-16 23.5q40 43 67 70.5t38 31.5q47 -35 76 -60.5t33 -39.5zM240 75q0 -9 -8.5 -16t-23.5 -17.5t-35 -27.5t-43 -45q-2 -1 -8.5 -11t-15 -22.5t-16 -24t-11.5 -16.5l-15 5t-6 7
q0 3 8 15l17 25.5t17 25t8 14.5t-14 13t-30 22l-30 22.5t-14 13.5q0 1 17 16.5t38.5 33.5t40.5 33t21 15q4 0 20.5 -11.5t34.5 -25.5t33 -27.5t15 -16.5z" />
    <glyph glyph-name="question" unicode="?" horiz-adv-x="585" 
d="M565 591q0 -27 -10 -52t-25.5 -45t-35.5 -36t-39 -25q-25 -12 -60 -23t-67 -22t-54 -24.5t-22 -30.5q0 -9 9 -16t20 -13t20 -11t9 -10q0 -28 -26 -28q-32 0 -53.5 13t-35 31t-19.5 37.5t-6 33.5q0 46 22.5 75.5t56 50t72.5 35t72.5 31.5t56 39t23.5 57q0 14 -6.5 31
t-17.5 31t-25 23.5t-28 9.5q-5 0 -18.5 -8.5t-36.5 -18.5t-56 -18.5t-76 -8.5q-15 0 -37 2.5t-47 10.5t-52 23.5t-53 41.5v15q81 -21 143.5 4.5t83.5 79.5h17q41 -48 93.5 -75t99 -52.5t78 -60t30.5 -97.5zM370 113q0 -11 -32 -34.5t-74 -72.5q-57 38 -77.5 56t-17 33.5
t26 38t51.5 70.5q6 -2 26 -16.5t41.5 -31t38.5 -30z" />
    <glyph glyph-name="A" unicode="A" horiz-adv-x="1205" 
d="M1185 189q0 -10 -17.5 -31t-41 -47.5t-46 -56t-33.5 -56.5q-2 0 -5.5 -2.5t-5.5 -2.5t-22 19.5t-43.5 44t-44 47t-23.5 28.5q-9 14 -11 24t-3 19t-4 18.5t-13 21.5q-53 -51 -80.5 -90.5t-43 -66.5t-26 -41t-29.5 -14q-8 0 -27.5 11.5t-48 25t-64.5 25t-78 11.5
q-52 0 -97.5 -12.5t-81.5 -32.5t-62 -45.5t-39 -50.5l11 -9q14 8 42 17t61 17t67 13t62 5h132q48 0 110.5 -13t118.5 -35t94.5 -50.5t38.5 -59.5q0 -40 -32 -66.5t-81 -42.5t-109.5 -22t-117.5 -6q-42 0 -79.5 6t-67 14t-50.5 15.5t-30 10.5q-62 20 -96.5 44.5t-52.5 45.5
t-26.5 35.5t-18.5 14.5q-60 -28 -97.5 -52.5t-42.5 -56.5q0 -41 24.5 -58t55 -21t58 0t32.5 4v-15h-77q-27 10 -46.5 16.5t-32 15.5t-19 23t-6.5 39q0 22 22 47t48.5 46.5t49.5 37.5t25 19q4 10 -0.5 27t0.5 45q7 42 30.5 75t53.5 57t61.5 39t54.5 21q57 16 91.5 20.5
t54.5 4.5h29.5t16 7t14 23.5t24.5 51.5q30 62 47.5 103.5t26 67t10.5 37t2 14.5q0 25 -19.5 46.5t-48 37.5t-61 25t-57.5 9q-31 0 -58 -16.5t-27 -41.5q0 -20 9.5 -29t23 -13t28.5 -7t27 -12q-12 -4 -24 -4q-27 0 -49 8.5t-38.5 21t-25.5 27.5t-9 28q0 15 10.5 37t34.5 42
t63 34t96 14q33 0 55 -3t38 -6t28.5 -5t25.5 -1q-42 43 -96 60t-103 17q-63 0 -105.5 -15.5t-68 -40t-36.5 -55t-11 -60.5q0 -36 19 -68t48 -56t65.5 -38t70.5 -14q49 0 73 11t52 27q2 -2 4.5 -2.5t5.5 -2.5v-11q-21 -12 -38.5 -20.5t-34.5 -13.5t-36.5 -7t-45.5 -2
q-27 0 -64.5 12t-71.5 37t-58 64.5t-24 94.5t25.5 104.5t69 87t100.5 59.5t120 22q87 0 147.5 -28.5t93.5 -59.5q12 7 18 15.5t9.5 18t8.5 20t16 22.5q32 -93 61 -181.5t54 -182.5q11 -40 17 -61.5t11.5 -37.5t11.5 -32.5t16 -47.5q0 -3 7.5 -29.5t20 -58t29 -57t36.5 -25.5
q8 0 21 9.5t27 32.5q7 -3 12 -6.5t5 -10.5zM821 391q-3 13 -11 39.5t-18 55t-19 53.5t-14 34q-2 -15 -14.5 -42.5t-27 -54.5t-25.5 -48t-11 -24q0 -5 14.5 -8t36 -4t46 -1h43.5zM856 250v35h-213q-2 -3 -7 -12t-10 -21t-10.5 -24.5t-8.5 -21.5q49 -8 80.5 -16.5t50 -15
t26.5 -10.5t10 -4q6 0 10 3t11.5 13t21.5 27.5t39 46.5zM890 -183q0 27 -35 47t-91 34t-126 21t-139 7q-44 0 -95 -5t-94 -12.5t-71.5 -18t-28.5 -20.5q0 -20 37 -48.5t95 -55t128 -45.5t137 -19q73 0 126 12t88 29.5t52 37.5t17 36z" />
    <glyph glyph-name="B" unicode="B" horiz-adv-x="923" 
d="M903 378v-235q-17 -3 -33 -3.5t-35.5 -3t-45 -9t-60.5 -21.5q-27 -12 -52 -30t-45 -35t-35.5 -29t-24.5 -12q-8 0 -34 14.5t-65.5 31.5t-91 31.5t-110.5 14.5q-36 0 -68 -11t-56.5 -28t-39 -37.5t-14.5 -39.5q0 -20 17.5 -21t52.5 6.5t89 17.5t127 10q29 0 79 -5.5
t98.5 -18.5t85 -34.5t36.5 -53.5q0 -21 -18.5 -37t-51 -27t-75.5 -16.5t-91 -5.5q-76 0 -133 13t-83 22q-57 20 -79.5 38.5t-35.5 32t-28 19.5t-57 1q13 17 25 18.5t15 8.5q0 58 12.5 103.5t65.5 78.5q17 11 39.5 19.5t43 14.5t36 10t20.5 6q-5 4 -10.5 8t-10.5 9v11
q27 2 44.5 11t27.5 22.5t13.5 29t3.5 28.5v88q-25 0 -47.5 1.5t-42 -2.5t-34.5 -18t-26 -45q-13 11 -17 15.5t-4 26.5q0 30 16.5 43t41 18.5t53 8.5t53.5 14v21q-25 5 -39 6.5t-39 1.5q-26 0 -58 -6t-60.5 -18.5t-48 -31t-19.5 -43.5q0 -35 22.5 -58t51 -37t54 -20t30.5 -8
q-6 -6 -8 -8.5t-3.5 -2.5t-4 0.5t-10.5 0.5q-24 0 -56 10.5t-61 31t-49 51.5t-20 72q0 35 20 63.5t50.5 49t67 31.5t68.5 13q46 3 87 20t58.5 36.5t3.5 35.5t-78 16q-33 0 -59 10t-44.5 25t-30 33t-16.5 34q0 3 -1.5 14.5t-6.5 25t-13 24t-22 10.5q-5 0 -15.5 -6t-21.5 -17
t-19 -27t-8 -35q0 -21 15 -46t33.5 -46.5t35.5 -36.5t20 -15q-59 22 -94.5 62t-35.5 79q0 30 16.5 53.5t41 40.5t53.5 26t53 9q54 0 83 -23t45.5 -50.5t27.5 -50.5t29 -23q36 0 46.5 33t7.5 82h20v-28q0 -1 -5 -19.5t-11 -40.5t-10.5 -40t-4.5 -19q1 1 20.5 14l49.5 33
t66 43t69.5 43t60.5 33t39 13q23 0 46.5 -13.5t42 -40.5t30 -66t11.5 -90q0 -33 -2 -53.5t-15 -38t-41.5 -37t-80.5 -49.5q10 -4 41.5 -10.5t65.5 -19.5t61 -35t27 -58zM681 644q0 12 1.5 31t-2.5 39t-17 38t-42 29v-280q27 15 39.5 28t17 29t4 36.5t-0.5 49.5zM585 490v302
q-33 -11 -42.5 -30t-17.5 -27l9 -245q21 -4 30.5 -3t20.5 3zM708 130l7 144q1 30 1.5 65.5t-5.5 66t-20.5 51t-43.5 20.5q-23 0 -29 -16.5t-6 -39.5q0 -9 0.5 -18.5t1.5 -34t1.5 -70.5t0.5 -129q35 -11 55 -19.5t37 -19.5zM585 182q-1 31 1 71.5t3 80.5t-0.5 74.5t-7.5 53.5
q-29 -5 -36 -16.5t-6.5 -30t2 -43t-10.5 -56.5q-12 -31 -34 -50t-47.5 -31.5t-51.5 -21.5t-46 -20q41 6 76 4.5t64 -6t52.5 -8t41.5 -1.5zM642 -112q0 11 -19 20t-48 16t-63 12t-64 8.5t-51 5.5t-23 2h-28h-26.5t-34.5 -1t-53 -3q-56 -4 -78.5 -10t-34.5 -14q35 -24 66 -42
t64 -30t70.5 -18t85.5 -6q120 0 178.5 17t58.5 43z" />
    <glyph glyph-name="C" unicode="C" horiz-adv-x="867" 
d="M847 395q1 -69 -24 -141.5t-76.5 -131t-129.5 -96t-183 -37.5q-15 0 -52 4t-83 17t-95.5 38.5t-90.5 69t-67 107t-26 153.5q0 27 6 60t16.5 67t25.5 67t34 60q2 2 26.5 36t61 76t79.5 79t82 45q-13 -16 -25 -28.5t-23.5 -25.5t-24 -29.5t-26.5 -42.5v-11q4 -1 5 -3t5 -2
q28 0 67.5 19t90 47.5t111.5 63t132 64.5h15q0 -20 4 -46.5t12 -50.5t20 -40.5t28 -16.5q27 0 35.5 20.5t7 46t-7 49.5t-6.5 30q8 8 16 2.5t14.5 -19t10.5 -32t4 -35.5q0 -70 -29 -99t-66.5 -37t-71.5 -5t-44 -1l7 -583q11 1 43 17.5t66 50t60.5 86t26.5 124.5q0 70 -12 102
t-12 38q0 5 7 7.5t11 5.5h14q17 -31 24 -68t7 -71zM579 686q0 14 -5.5 23t-13.5 17t-17.5 18t-17.5 26q0 -51 -0.5 -92.5t-0.5 -81t1 -81t4 -92.5q4 -78 -8 -111.5t-40.5 -49t-73 -26t-104.5 -42.5q12 -15 34 -33.5t52 -35t66 -27.5t74 -11q14 0 25 1.5t22 2.5q0 87 1 158
t1.5 139.5t1 139.5t-0.5 158zM319 356q3 52 2.5 95t-2 84t-3.5 84t-2 95q-32 -11 -44.5 -13t-22.5 -15q-4 -4 -10 -33t-12 -65.5t-10.5 -71t-4.5 -49.5q0 -39 9 -79.5t21 -73.5t24.5 -55t18.5 -26q11 15 18 35.5t11 40t5.5 33.5z" />
    <glyph glyph-name="D" unicode="D" horiz-adv-x="995" 
d="M975 706l-15 -536q-35 0 -61.5 -4t-50 -10.5t-48 -16t-55.5 -20.5q-49 -18 -80 -39.5t-51 -41t-33 -32.5t-25 -13q-10 0 -29.5 17.5t-53.5 38t-84 38t-120 17.5q-21 0 -58 -8t-72 -23t-61 -37.5t-26 -52.5q0 -49 29.5 -86.5t80.5 -62.5t120 -38t147 -13q59 0 128 11.5
t127.5 36t97.5 62.5t39 92q0 7 -4 21.5t-7.5 29t-5.5 25.5t2 11q6 0 21 -22t15 -75q0 -46 -28 -88t-80.5 -73.5t-128 -50t-170.5 -18.5q-73 0 -147 13t-133.5 40t-97 68.5t-37.5 97.5q0 26 17 66t58 77.5t109.5 64t170.5 26.5q17 0 75 -7t146 -21q4 10 6.5 18.5t2.5 21.5
v515q0 1 -3.5 5.5t-7.5 4.5l-15 -3.5t-37.5 -7t-48 -7t-46.5 -3.5q-125 0 -185.5 44.5t-60.5 104.5q0 1 2 12t3 13q18 -5 22.5 -10.5t10.5 -10t20 -7t51 -2.5q52 0 100.5 5.5t96 12t97 11.5t104.5 5q103 0 156 -26t76.5 -59t27.5 -63t7 -38zM534 707h26q-1 -4 -7.5 -12.5
t-14 -27t-13 -50.5t-5.5 -83v-111q0 -3 2 -13t3 -24.5t-1 -31.5t-10 -35q-11 -24 -41.5 -45.5t-66 -37.5t-69 -25t-49.5 -9q-10 0 -9 10t6 24t11.5 28.5t6.5 24.5q0 29 -31 41.5t-64 12.5q-32 0 -41 -6t-14 -33q-27 14 -36 30.5t-9 40.5q0 34 27.5 46t61.5 13t64.5 -3.5
t35.5 -4.5q-6 7 -21 13t-31.5 10.5t-32.5 7t-24 2.5q-24 0 -46.5 -6t-40.5 -17t-29 -26.5t-11 -34.5q0 -21 10.5 -41t27 -35.5t35.5 -24.5t37 -9q41 0 61 8.5t46 22.5q2 -1 5 -1.5t5 -1.5v-17q-31 -19 -62 -23t-55 -4q-13 0 -37 7t-48 25t-42 48.5t-18 76.5q0 34 19 63
t51.5 50.5t74 35t86.5 18.5q30 3 43 0t19 0q4 3 7 15t21.5 30t61 41t125.5 48zM776 584v91q0 34 -21 49t-72 15q-13 0 -23 -1.5t-22 -3.5v-158q10 1 22 -4t28 -8.5t37.5 -0.5t50.5 21zM776 423q0 21 1 34t1.5 25t0.5 26t-3 37q-31 -4 -43 -7.5t-21 -5t-23.5 0.5t-50.5 8
q0 -34 -2 -53.5t-3.5 -32t-0.5 -21t6 -19.5q42 17 73.5 11.5t64.5 -3.5zM776 237v154q-18 5 -32 8.5t-28 3.5q-3 0 -20.5 -1.5t-37.5 -9.5t-20 -25v-206q27 -12 52 -15.5t44 4.5t30.5 29t11.5 58z" />
    <glyph glyph-name="E" unicode="E" horiz-adv-x="923" 
d="M903 338q0 -69 -32.5 -131t-89.5 -109t-134.5 -74.5t-168.5 -27.5q-18 0 -59 5.5t-92 21.5t-105 45t-99 76t-74 114.5t-29 160.5q0 6 8 41t40 92.5t94.5 134.5t171.5 166h17v-21q-30 -36 -42.5 -56.5t-20.5 -33.5v-11q4 -1 5.5 -3t3.5 -2q15 0 124 44.5t290 128.5h28
q2 -25 -6.5 -39t-8.5 -36q0 -5 3 -15.5t9 -21t15.5 -18t24.5 -7.5q34 0 45 14.5t11 35t-4 42.5t1 38q21 -16 24 -28.5t3 -30.5q0 -60 -26 -90.5t-61 -42.5t-70.5 -11t-55.5 3q-6 -37 -5.5 -62.5t0.5 -60.5q17 -1 42.5 5t44.5 6q35 0 60 -12t48 -31q12 6 18 11t9.5 8.5t6.5 6
t11 2.5q12 0 16.5 -5.5t8.5 -10.5l-164 -199q-15 8 -21.5 25.5t-14 37.5t-21.5 39t-44 30v-378q117 28 175.5 100t58.5 167q22 4 26.5 -4t4.5 -29zM607 560v147q0 9 -6 14t-14 12.5t-15.5 20t-11.5 36.5q-9 -8 -10.5 -14.5t-1.5 -10.5q0 -10 1.5 -20t2.5 -35t2.5 -71.5
t1.5 -129.5q30 19 40.5 31t10.5 20zM365 363q-1 31 -0.5 56t0.5 49t-0.5 49t-3.5 56q-5 52 -7.5 84.5t-9.5 49.5q-18 -11 -29.5 -14.5t-35.5 6.5q-14 -43 -26 -74.5t-15 -75.5q0 -2 -2 -38t2 -81q0 -2 5 -28t14.5 -60t24 -67t32.5 -49q18 21 29 33.5t17 25t7 30t-2 48.5z
M602 98v384q-36 -25 -44 -40t-6 -32t2.5 -41.5t-19.5 -68.5q-17 -36 -46.5 -53t-61 -24.5t-58.5 -11t-39 -13.5q18 -13 43.5 -31t56 -34t65 -27.5t71.5 -11.5q11 0 18.5 1.5t17.5 2.5z" />
    <glyph glyph-name="F" unicode="F" horiz-adv-x="982" 
d="M962 728q0 -12 -10.5 -27t-29 -28.5t-43.5 -22.5t-54 -9q-17 0 -29 6.5t-46 16.5q-7 -21 -9 -37.5t-2 -35.5q0 -26 8.5 -36t19.5 -12.5t19.5 -0.5t8.5 0t-8.5 -17.5t-19 -35t-19.5 -38.5t-9 -28v-206q0 -4 -1.5 -16.5t-3.5 -27t-4 -26.5t-2 -15q0 -13 29 -21.5
t63.5 -23.5t64 -40.5t29.5 -71.5q0 -44 -23 -92t-70 -87.5t-117.5 -65t-166.5 -25.5q-92 0 -184.5 18t-166.5 55t-120 93t-46 132q0 34 14.5 65.5t40.5 55.5t61.5 38.5t76.5 14.5q43 0 71.5 -9.5t46.5 -21.5t28.5 -21.5t17.5 -9.5q25 0 37.5 23t17 55.5t4.5 68v60.5v32.5
t-1 35.5t-2 29.5t-2 14.5h-143q-2 0 -8.5 6t-6.5 5q0 31 12.5 51t31.5 31t42 16t44 6q26 2 31 13t5 29.5t3 43.5t26 57q16 22 62 51.5t103 57t117 49t104 27.5q0 -1 -5.5 -25t-4.5 -52.5t15 -52t53 -23.5q18 0 20 11t9 23q9 -7 15 -12t6 -18zM716 552l3 95q1 25 -7 40
t-18 28t-18 27.5t-8 38.5q-16 -11 -25.5 -39.5t-14 -60t-6 -60t-1.5 -40.5v-13t5 -10t16.5 -6.5t34.5 -2.5q9 0 17.5 0.5t21.5 2.5zM719 357q-1 11 0.5 19t1.5 15.5t-3.5 16.5t-13.5 22l-74 -4q-32 -48 -42.5 -82.5t-13 -60.5t-4 -47.5t-15 -43.5t-46 -49t-97.5 -64
q23 -18 44 -28t25 -10q3 0 10 6.5t21.5 17t39.5 22.5t65 22q31 7 48.5 7t27 4t14.5 19t9 54q5 47 3 82t0 82zM689 83v11h-52q-17 -7 -23.5 -6.5t-15.5 -2.5t-26.5 -14t-58.5 -40q21 -3 41.5 -3.5t42 4t44.5 16.5t48 35zM876 -49q0 52 -30.5 86.5t-120.5 53.5
q-26 -49 -88.5 -74t-146.5 -25q-8 -5 -15 -16t-7 -22q0 -26 13 -47t30 -35.5t34 -23t25 -10.5v-16q-5 0 -7 -2t-8 -2q-23 0 -45 18.5t-37.5 46t-22 59.5t2.5 58q-13 5 -42 9t-59.5 6.5t-54.5 3.5t-27 1q-66 0 -102.5 -15t-54 -33.5t-21.5 -34.5t-4 -18q0 -22 15.5 -44.5
t38 -41.5t47.5 -33.5t42 -20.5q10 -4 40 -11t68.5 -14t80 -12.5t74.5 -5.5q77 0 146 16.5t121.5 45t83.5 68t31 85.5z" />
    <glyph glyph-name="G" unicode="G" horiz-adv-x="974" 
d="M954 319q0 -84 -39.5 -144.5t-103.5 -99.5t-144.5 -57t-161.5 -18q-126 0 -218 30.5t-151.5 82.5t-88 121.5t-27.5 147.5q0 11 3.5 35t12.5 55.5t24 68.5t38 73q14 22 42.5 54t55.5 61q4 4 26.5 26t47.5 44t45 35t20 -1q0 -1 -24 -33t-58 -95v-11q4 -1 5.5 -2.5t5.5 -1.5
q34 0 75.5 15t85 37.5t86.5 49.5t79 51t62.5 41t37.5 20q1 -44 12.5 -71t52.5 -31q25 0 38 9t18.5 22.5t5.5 30v32.5q6 1 13 2t12 1q7 -17 5.5 -42.5t-19.5 -65t-56 -94.5t-104 -129q9 -7 33.5 -14t56.5 -17.5t66.5 -27t63.5 -41.5t47.5 -61.5t18.5 -87.5zM741 703
q-35 -15 -72.5 -7.5t-68.5 22.5t-52 30.5t-24 15.5q-3 -4 -10 -11v-258q46 24 86.5 59t71 67t49 56t20.5 26zM733 490q0 30 -19 40.5t-41.5 3t-41.5 -30.5t-19 -59q0 -25 12.5 -47.5t42.5 -22.5q45 0 55.5 33.5t10.5 82.5zM826 322v41t-4.5 33.5t-15.5 36t-34 47.5l-12 -3
l-10 -353q30 13 45.5 44t22.5 64t7.5 59.5t0.5 30.5zM721 255q0 8 0.5 14.5t0.5 17v27t-1 44.5h-116q6 -12 7 -17.5t-0.5 -14t-4 -24t-2.5 -47.5q13 0 36 2t80 -2zM568 33l1 451q-21 -17 -32 -22.5t-16.5 -10t-6 -11.5t-0.5 -27v-87q0 -36 -31.5 -61t-71.5 -41t-75.5 -23.5
t-42.5 -8.5q-7 15 -0.5 22.5t17 21.5t20.5 43.5t10 89.5l-10 310q-34 -10 -56 -19t-35.5 -28.5t-19 -56t-5.5 -102.5q0 -99 17.5 -172.5t53.5 -126t90.5 -87t128.5 -54.5h64zM719 193q0 20 -8.5 31t-41.5 11q-24 0 -37.5 -6.5t-19.5 -17.5t-7.5 -26.5t-1.5 -33.5
q0 -31 1 -60.5t8 -44.5q32 11 52.5 15t32.5 15.5t17 37t5 79.5z" />
    <glyph glyph-name="H" unicode="H" horiz-adv-x="1273" 
d="M559 813q0 -70 -38 -109.5t-112 -39.5q-70 0 -98 26t-34 63q-2 11 -2.5 21.5t-3 19t-9 14t-19.5 5.5q-17 0 -32.5 -15t-15.5 -35q0 -63 41.5 -92t102.5 -40v-12q-7 0 -9.5 -1.5t-7.5 -1.5q-8 0 -35 8.5t-56 26.5t-51.5 46t-22.5 66q6 28 17.5 50.5t33 39.5t56.5 26.5
t88 12.5q1 0 20 -4t41 -18t40.5 -40t18.5 -71q0 -1 4.5 -11.5t14.5 -25.5q36 18 39.5 53t3.5 93q22 -10 23.5 -20t1.5 -35zM1241 232l12 -8q-24 -33 -38.5 -53t-26 -36.5t-22.5 -35t-29 -47.5q-14 -24 -24.5 -45.5t-32.5 -21.5q-6 0 -29 25t-48.5 57.5t-47.5 62.5t-27 41
q-25 -13 -47 -43t-41 -61t-35.5 -54.5t-31.5 -23.5q-2 0 -29.5 14.5t-75 31.5t-113 31.5t-143.5 14.5q-55 0 -105.5 -11.5t-89 -30.5t-61 -43.5t-22.5 -50.5q0 -11 1.5 -14t8.5 -14q16 3 43.5 12t67 18.5t91 17.5t115.5 8q108 0 179.5 -16.5t107.5 -23.5q11 -2 42 -9.5
t63.5 -20.5t58 -32.5t25.5 -46.5q0 -36 -28.5 -59.5t-75.5 -37.5t-106 -19.5t-120 -5.5q-63 0 -126 26t-122 58t-114 58t-102 26q-10 0 -27 -10t-34 -24.5t-29.5 -29.5t-12.5 -24q0 -22 24 -32t54 -13t56.5 -2t31.5 0q-9 -7 -14.5 -9.5t-10.5 -3t-11.5 0.5t-17.5 1
q-25 0 -49 4t-42.5 13t-29.5 22.5t-11 32.5t15 37t33.5 32.5t34 24.5t15.5 12q3 6 -6.5 23.5t-9.5 39.5q0 33 27.5 75t79.5 78.5t127 62t171 25.5q59 0 99 -6.5t68.5 -14.5t50 -14.5t43.5 -6.5q6 0 11 0.5t11 0.5l20 688q-4 1 -7 3t-8 2q-18 0 -30 -10t-18.5 -26t-9.5 -37
t-3 -43q0 -38 -1 -68t-2 -58.5t-2 -58.5t-1 -67q0 -67 -1.5 -107t-21 -67t-66 -48t-136.5 -51h-31l-11 8q29 30 51 53.5t22 60.5q0 11 -23 19.5t-58 8.5q-37 0 -53 -15t-30 -36q-23 5 -35.5 18.5t-12.5 25.5q0 41 24.5 60.5t58.5 26.5t68.5 5.5t53.5 -1.5v18
q-18 11 -35.5 14t-42.5 3q-20 0 -55 -7t-68.5 -21t-58 -35t-24.5 -48q0 -36 23.5 -53t54.5 -23t61.5 -5t43.5 1q2 -10 -7.5 -14.5t-23 -6t-27 -1.5h-19.5q-33 0 -64 16.5t-55 41t-39 53.5t-15 53q0 42 35.5 75.5t84.5 55.5t102.5 31t89.5 2h34q7 50 36 103t76 96.5
t108.5 71.5t133.5 28q51 0 84.5 -8t57.5 -22t43.5 -32.5t41.5 -39.5q2 0 13.5 6t26 14t29.5 17.5t24 17.5h26q1 0 2.5 -5.5t1.5 -10.5q-27 -8 -66.5 -30.5t-90.5 -54t-112 -70t-132 -79.5v-109l174 153h28q0 -5 10 -24t24.5 -40t31.5 -37.5t30 -16.5t22.5 16.5t39.5 39.5
q6 -10 -1 -22.5t-19 -26t-24.5 -27.5t-17.5 -27l-9 -189v-80q0 -5 8.5 -19t31.5 -44q17 5 31.5 23.5t40.5 58.5h15zM912 727q0 19 -4 40t-12 39.5t-22 33t-33 20.5q-3 -7 -5 -25.5t-3 -39.5t-2 -39t-1 -25q0 -38 1 -56t5 -32q18 12 32 18t24 13t15 18.5t5 34.5zM937 423
q0 59 -48 82q-27 -32 -43 -42.5t-16 -20.5q0 -14 11 -26.5t49 -12.5q11 0 29 5t18 15zM928 328v50l-23.5 -1.5t-68.5 -1.5q0 -13 -1 -24t1 -23q20 3 32.5 3.5t22.5 0t18 -1.5t19 -2zM928 263q0 28 -6.5 32.5t-40.5 4.5q-26 0 -37.5 -6t-11.5 -22v-118q10 -3 12 -3t18 -1
q5 14 16 25t22 23t19.5 27t8.5 38zM889 -181q0 25 -36.5 44.5t-86.5 32.5t-103.5 20t-86.5 8q-27 1 -49 1h-42.5t-42 -0.5t-47.5 -0.5q-12 0 -43 -5t-66 -12t-65.5 -15t-41.5 -14q69 -60 175 -102t255 -42q55 0 105.5 4t89 13.5t62 26t23.5 41.5z" />
    <glyph glyph-name="I" unicode="I" horiz-adv-x="878" 
d="M621 820q0 -61 -37.5 -95t-102.5 -34q-56 0 -82 25.5t-41.5 56t-30.5 56t-50 25.5q-16 0 -30.5 -9t-26 -22t-18.5 -28t-7 -27q0 -9 11.5 -33t24.5 -37q35 -36 65 -47.5t55 -12t45 3.5t35 -2q-13 -10 -19.5 -14t-13 -5.5t-15.5 -1t-26 0.5q-48 0 -83 17t-58.5 40.5
t-34.5 49t-11 41.5q0 22 13 45.5t38 42.5t62 31.5t85 12.5q67 0 96.5 -23.5t43.5 -51.5t24 -51.5t38 -23.5q21 0 26.5 15t4 36t-6 43t-2.5 36h15q4 -14 9 -26t5 -34zM841 880h17q-16 -29 -25 -37.5t-13 -16t-4 -23t1 -57.5q2 -70 3.5 -128t2.5 -113t0.5 -113t-2.5 -128
q-2 -61 -27.5 -110.5t-69.5 -84.5t-104 -54t-132 -19q-26 0 -64 4.5t-76.5 10t-71 10t-46.5 4.5q-13 0 -39 -8t-51.5 -21t-44.5 -30.5t-19 -35.5q0 -4 13 -31t50.5 -58t106.5 -56t180 -25q51 0 114.5 10t119 28.5t93 46t37.5 62.5q0 30 -25.5 41.5t-53.5 23.5q5 8 5.5 12.5
t12.5 4.5q27 0 54.5 -22.5t27.5 -54.5q0 -42 -34 -74t-92.5 -54t-137 -33.5t-168.5 -11.5q-78 0 -143.5 24t-113.5 62t-75 85t-27 94q0 29 10 59.5t31 55.5t52.5 40.5t74.5 15.5t71.5 -15.5t48.5 -35.5t35.5 -40t31.5 -28q7 10 15.5 26t40.5 35v167q0 20 -10.5 30.5
t-12.5 10.5t-19 -2t-36 -6t-34.5 -10.5t-15.5 -16.5q0 -4 8.5 -10t16 -11t9.5 -8.5t-12 -3.5q-12 0 -27 7t-28.5 18t-22.5 25.5t-9 29.5q0 24 17 38.5t43.5 22.5t59 12t63.5 7q0 5 2.5 6t2.5 5q0 21 -13.5 24t-51.5 3t-74 -9.5t-64 -26.5t-45 -39t-17 -48q0 -35 26.5 -59.5
t59.5 -41t62.5 -25.5t34.5 -13h-41q-36 12 -67.5 27t-55.5 35.5t-38 47.5t-14 62q0 65 42.5 109.5t122.5 74.5q23 8 41.5 10t33 2t25.5 -0.5t19 3.5q4 3 8.5 10.5t8.5 16.5t7 16t4 9q27 31 62 49.5t68 30t57.5 19t29.5 16.5q18 31 32.5 51t33 35t46 29t72.5 34zM390 304h17
h-17zM652 106q3 85 3 154.5t-1.5 136t-3.5 135.5t-3 154q-17 -10 -26 -17.5t-12 -16.5t-3 -20.5t1 -28.5q2 -54 3 -98t1.5 -86.5t0.5 -87v-99.5q0 -21 -9 -46.5t-28 -49t-49.5 -42.5t-73.5 -27q12 -7 12.5 -10.5t-5 -3.5t-15 2.5t-18.5 7.5v-20h-14q7 0 12 -3t12 -6t18.5 -6
t30.5 -3q22 0 50.5 4t54.5 13t44 24.5t18 39.5z" />
    <glyph glyph-name="J" unicode="J" horiz-adv-x="878" 
d="M621 820q0 -61 -37.5 -95t-102.5 -34q-56 0 -82 25.5t-41.5 56t-30.5 56t-50 25.5q-16 0 -30.5 -9t-26 -22t-18.5 -28t-7 -27q0 -9 11.5 -33t24.5 -37q35 -36 65 -47.5t55 -12t45 3.5t35 -2q-13 -10 -19.5 -14t-13 -5.5t-15.5 -1t-26 0.5q-48 0 -83 17t-58.5 40.5
t-34.5 49t-11 41.5q0 22 13 45.5t38 42.5t62 31.5t85 12.5q67 0 96.5 -23.5t43.5 -51.5t24 -51.5t38 -23.5q21 0 26.5 15t4 36t-6 43t-2.5 36h15q4 -14 9 -26t5 -34zM841 880h17q-16 -29 -25 -37.5t-13 -16t-4 -23t1 -57.5q2 -70 3.5 -128t2.5 -113t0.5 -113t-2.5 -128
q-2 -61 -27.5 -110.5t-69.5 -84.5t-104 -54t-132 -19q-26 0 -64 4.5t-76.5 10t-71 10t-46.5 4.5q-13 0 -39 -8t-51.5 -21t-44.5 -30.5t-19 -35.5q0 -4 13 -31t50.5 -58t106.5 -56t180 -25q51 0 114.5 10t119 28.5t93 46t37.5 62.5q0 30 -25.5 41.5t-53.5 23.5q5 8 5.5 12.5
t12.5 4.5q27 0 54.5 -22.5t27.5 -54.5q0 -42 -34 -74t-92.5 -54t-137 -33.5t-168.5 -11.5q-78 0 -143.5 24t-113.5 62t-75 85t-27 94q0 29 10 59.5t31 55.5t52.5 40.5t74.5 15.5t71.5 -15.5t48.5 -35.5t35.5 -40t31.5 -28q7 10 15.5 26t40.5 35v167q0 20 -10.5 30.5
t-12.5 10.5t-19 -2t-36 -6t-34.5 -10.5t-15.5 -16.5q0 -4 8.5 -10t16 -11t9.5 -8.5t-12 -3.5q-12 0 -27 7t-28.5 18t-22.5 25.5t-9 29.5q0 24 17 38.5t43.5 22.5t59 12t63.5 7q0 5 2.5 6t2.5 5q0 21 -13.5 24t-51.5 3t-74 -9.5t-64 -26.5t-45 -39t-17 -48q0 -35 26.5 -59.5
t59.5 -41t62.5 -25.5t34.5 -13h-41q-36 12 -67.5 27t-55.5 35.5t-38 47.5t-14 62q0 65 42.5 109.5t122.5 74.5q23 8 41.5 10t33 2t25.5 -0.5t19 3.5q4 3 8.5 10.5t8.5 16.5t7 16t4 9q27 31 62 49.5t68 30t57.5 19t29.5 16.5q18 31 32.5 51t33 35t46 29t72.5 34zM390 304h17
h-17zM652 106q3 85 3 154.5t-1.5 136t-3.5 135.5t-3 154q-17 -10 -26 -17.5t-12 -16.5t-3 -20.5t1 -28.5q2 -54 3 -98t1.5 -86.5t0.5 -87v-99.5q0 -21 -9 -46.5t-28 -49t-49.5 -42.5t-73.5 -27q12 -7 12.5 -10.5t-5 -3.5t-15 2.5t-18.5 7.5v-20h-14q7 0 12 -3t12 -6t18.5 -6
t30.5 -3q22 0 50.5 4t54.5 13t44 24.5t18 39.5z" />
    <glyph glyph-name="K" unicode="K" horiz-adv-x="1161" 
d="M477 765q0 -30 -14.5 -56t-36 -45.5t-48 -31t-52.5 -11.5q-38 0 -61 13t-36.5 32.5t-20.5 43t-13.5 43t-15.5 32.5t-26 13q-21 0 -40.5 -24t-19.5 -67q0 -37 21 -58.5t53.5 -33t72.5 -16t78 -8.5v-11q-33 -11 -61 -11q-53 0 -89 12.5t-59 34t-33 50t-10 60.5
q0 29 16.5 55.5t41 46t52.5 31t50 11.5q61 0 86.5 -28.5t35.5 -62.5t15.5 -62.5t26.5 -28.5q33 0 43.5 24t9 54t-8 57t-7.5 33q33 -12 41.5 -37t8.5 -54zM1141 213q0 -4 -9 -14.5t-21.5 -26t-26.5 -34.5t-25 -40q-1 -6 -12 -22.5t-25 -34t-27 -31.5t-19 -14q-63 0 -93 23
t-43 51.5t-17 53.5t-16 28t-40.5 -24t-89.5 -102q-7 -8 -17 -26.5t-26 -18.5t-43.5 14.5t-68.5 32t-96.5 32.5t-125.5 15q-43 0 -89 -6.5t-84 -21.5t-62.5 -39t-24.5 -58q0 -27 28 -61t91 -64t165 -50.5t249 -20.5q45 0 103.5 6t111.5 21.5t89.5 42t36.5 67.5
q0 25 -16.5 45.5t-38.5 35.5t-45.5 23t-36.5 8q-19 0 -22 14t17 14q8 0 35 -9.5t56.5 -27.5t53 -44.5t23.5 -61.5q0 -34 -33.5 -65t-88.5 -54.5t-126 -37t-146 -13.5q-77 0 -168.5 12t-171 40.5t-133 74.5t-53.5 115q0 41 38 82t98 73.5t133.5 52.5t145.5 20q25 0 60.5 -4
t71.5 -11t69 -17.5t54 -22.5q13 9 18 43.5t6 77.5t-0.5 86.5t-0.5 70.5q-2 0 -4 2t-5 2q-35 0 -52 -17.5t-24.5 -41t-11.5 -46t-13 -31.5q-27 -26 -81 -42t-110 -32h-37q-1 4 -3 4.5t-2 5.5t9 7t19.5 7.5t19.5 17t9 33.5q0 12 -7.5 20t-19 13t-24 7t-21.5 2q-31 0 -55.5 -11
t-37.5 -19q11 -10 13 -11l18 -9v-13h-31q-31 12 -46.5 24.5t-15.5 33.5q0 30 22.5 48.5t56.5 28.5t75 13.5t77 3.5q0 3 2 4.5t2 4.5q0 4 -23.5 17.5t-53.5 13.5q-26 0 -65 -8t-76 -23.5t-63.5 -38.5t-26.5 -53t29.5 -46.5t66 -24.5t69.5 -9.5t42 -3.5v-17q-17 -2 -27.5 -2.5
t-20.5 -0.5q-38 0 -74.5 10.5t-64.5 30t-45 47t-17 61.5q0 10 5.5 31t23.5 46t52 49.5t91 41.5q36 11 66.5 13.5t53 1.5t36 -3t14.5 -1q12 6 10.5 23t-1.5 40q0 28 32.5 60.5t90 66t136.5 65t173 57.5q2 -3 -1.5 -25.5t-0.5 -48.5t19 -47.5t55 -21.5q24 0 31.5 23t9.5 51
t4 51.5t16 23.5q18 0 19 -15.5t1 -25.5q0 -72 -31.5 -132t-72.5 -105.5t-79.5 -75.5t-51.5 -42q33 -10 65.5 -22.5t60 -29t49 -38t31.5 -50.5q12 -32 13 -58t3 -48t10.5 -40t35.5 -35q7 3 21.5 18t29 29t25.5 20.5t11 -7.5zM925 658h-184q5 -10 5.5 -39t-0.5 -59.5t-3 -55
t-2 -26.5q23 10 53.5 36.5t58.5 55.5t48.5 54t23.5 34zM709 600q0 20 -1.5 42t-8 42.5t-19 37.5t-34.5 27q-5 -12 -7 -23.5t-3.5 -28.5t-3.5 -44.5t-6 -72.5q-4 -42 -3 -71t-1 -70q2 -7 4.5 -15t4.5 -13q33 14 49 25t22.5 29.5t6.5 49.5v85zM826 325v37t-5.5 24.5t-20.5 21
t-45 26.5l-21 -5v-276q22 19 39 36t28.5 36.5t18 43t6.5 56.5z" />
    <glyph glyph-name="L" unicode="L" horiz-adv-x="1057" 
d="M433 751q0 -16 -10.5 -34.5t-31 -35t-51 -27.5t-70.5 -11q-57 0 -80.5 26.5t-33.5 59t-18.5 59t-35.5 26.5q-7 0 -16.5 -5.5t-18.5 -14.5t-15 -19t-6 -19q0 -18 5.5 -38.5t17 -40.5t30.5 -37.5t46 -27.5q42 -16 71 -16.5t50.5 3.5t38.5 8t34 -3q-9 -13 -24 -18.5t-30 -7
t-28.5 -0.5t-20.5 1q-65 0 -107 17t-66 43.5t-33.5 58.5t-9.5 63q0 22 16.5 42.5t40 37t50 26.5t47.5 10q47 0 71.5 -13t36.5 -32.5t16 -42.5t11 -42q8 -25 12 -40t31 -15q6 0 15.5 7t18 16.5t14 19.5t5.5 16q0 1 -3.5 12t-8.5 25t-11.5 28t-11.5 22v28q4 0 7.5 2t6.5 2
q11 0 30 -31.5t19 -87.5zM1037 292q0 -13 -2.5 -38.5t-11 -56.5t-23.5 -64t-40 -61q-30 -34 -68.5 -47.5t-72.5 -22.5t-57.5 -21.5t-23.5 -45.5q0 -9 21 -14.5t45.5 -15.5t45.5 -29t21 -56q0 -47 -40 -76.5t-101 -46.5t-134.5 -23.5t-140.5 -6.5q-78 0 -154 16.5
t-136.5 47.5t-97.5 75.5t-37 101.5q0 76 53 131.5t138 87t192 37.5t215 -17h50v686q-4 0 -6 2.5t-7 2.5t-14.5 -7t-19.5 -21t-17 -33t-7 -43q0 -60 1 -109t2.5 -95.5t2 -96t-1.5 -109.5q-1 -35 -27.5 -63t-61.5 -47t-72.5 -29t-61.5 -10q-7 0 -21.5 4.5t-14.5 12.5
q0 6 9.5 9t21.5 11t21.5 26t9.5 56q0 13 -2 22.5t-10 16t-25.5 9.5t-47.5 3q-38 0 -66.5 -12t-35.5 -16q11 -11 15 -14t8 -3h10.5t22.5 -4v-11q-8 -1 -12.5 -3t-13.5 -2q-32 0 -55.5 20t-23.5 39q0 17 13.5 31t31.5 24.5t35.5 17t24.5 7.5q29 5 53 5t41.5 -1.5t27 -1
t9.5 7.5t-30.5 19t-80.5 12q-39 0 -75 -10.5t-64 -28t-45 -40t-17 -45.5q0 -29 40 -53.5t99 -24.5q26 0 41 2t23.5 5t13 5.5t8.5 2.5q22 -9 15 -16.5t-26 -13.5t-43 -9t-37 -3q-38 0 -71.5 10t-59 29.5t-40.5 48t-15 65.5q0 32 12.5 57t34 44.5t50 34t59.5 25.5
q40 13 76.5 14.5t65 3t45.5 8t17 30.5q0 60 31.5 111t80 87.5t107.5 57t114 20.5q42 0 75 -12.5t65.5 -33t68.5 -45t85 -48.5q-6 -12 -26.5 -24t-55.5 -32t-85 -51t-115 -82h-21l-2.5 4t-2.5 10q0 5 15 15.5t33 27.5t33 41t15 56q0 34 -21.5 66t-79.5 64h-26v-667
q0 -9 9 -16t22 -7q19 0 27.5 14.5t14 39t12.5 56.5t23 68q5 12 20 35.5t36.5 50.5t49.5 54t59 45h14q0 -3 3.5 -4.5t3.5 -5.5q-49 -43 -85.5 -81.5t-64.5 -86.5q-14 -25 -21.5 -49t-12 -46t-8.5 -40t-11 -30v-20q17 -4 40 -4q65 0 96 18t55 53q21 31 24.5 53.5t2 37t-3 21.5
t8.5 7q13 0 19 -14t6 -23zM405 367q-15 -5 -40 -2.5t-62 2.5q18 3 30 4.5t22.5 1t21.5 -2t28 -3.5zM667 -98q-16 0 -33.5 2.5t-33.5 2.5q-29 0 -66.5 -7t-70.5 -18.5t-56 -26.5t-23 -30q0 -9 17 -15.5t38 -6.5q28 0 63 11t68 26.5t59.5 32.5t37.5 29zM846 -179
q0 14 -10.5 28t-28 25.5t-39.5 18.5t-44 7q-18 0 -42.5 -19.5t-57.5 -42.5t-76.5 -42.5t-100.5 -19.5q-59 0 -97 18t-38 50q0 29 26.5 47t67 28.5t89 15.5t92.5 6t77.5 1h44.5q2 11 3 18.5t4 20.5l-459 33q-32 -3 -65.5 -8t-60.5 -17t-44 -34.5t-17 -61.5q0 -47 39 -84
t98.5 -62.5t131 -39t136.5 -13.5q45 0 108 7.5t121.5 23t100 39.5t41.5 57z" />
    <glyph glyph-name="M" unicode="M" horiz-adv-x="1542" 
d="M1522 200q0 4 -14 -9.5t-34.5 -35.5t-44.5 -49t-45 -50.5t-35 -39.5l-14 -16q-11 0 -34 27t-81 81q-23 21 -32.5 40t-12.5 32.5t-3.5 21.5t-5.5 8q-12 0 -30 -31.5t-37.5 -69.5t-39 -69.5t-32.5 -31.5l-151 130q-5 -3 -9 -8t-10 -16t-16.5 -29.5t-29.5 -48.5h-12l-15 13
q40 54 55 99.5t17 72.5t3 49.5t1.5 43.5t1 43.5t0.5 49.5q0 15 -8.5 20.5t-22.5 6.5t-31 0.5t-35 3.5q-3 -6 -3 -19t0.5 -39t1.5 -69t1 -110q0 -19 -11 -38.5t-11 -54.5q0 -12 -11.5 -31t-35.5 -38t-62 -32.5t-91 -13.5q-12 0 -40.5 6.5t-61.5 13.5t-63 13.5t-44 6.5
q-24 0 -52 -7t-52 -20.5t-39.5 -32.5t-15.5 -43q0 -22 17.5 -52.5t56.5 -58.5t100.5 -47t149.5 -19q36 0 72.5 8t65.5 19t47.5 21.5t17.5 16.5q-26 50 -26 94q0 18 7.5 34t19 28t25.5 19t28 7q26 0 34 -21t8 -41q0 -30 -8.5 -52.5t-19 -38t-19 -23.5t-8.5 -10q0 -6 16.5 -19
t45.5 -27t68.5 -24t86.5 -10q55 0 91.5 11.5t58 30.5t30 44t8.5 51q0 42 -19 61t-36 37v11q3 5 16.5 1.5t29.5 -16.5t28.5 -37t12.5 -60q0 -38 -16.5 -69.5t-46 -54t-70.5 -35t-89 -12.5q-44 0 -80 11.5t-65 26.5t-51 31t-38 25q-48 -35 -103.5 -49t-109.5 -14
q-87 1 -142 18.5t-77 18.5q-2 0 -30 14t-60 43.5t-58.5 75t-26.5 107.5q0 85 50.5 127.5t129.5 42.5q28 0 49.5 -9t37.5 -20.5t27 -20.5t19 -9q42 0 57.5 25.5t15.5 47.5v116q-11 5 -19.5 8t-17.5 3q-12 0 -26.5 -5t-26.5 -14.5t-20.5 -23.5t-8.5 -32q-13 -5 -21 2
t-12.5 18.5t-6 24t-1.5 16.5q0 12 6.5 31t24 37t47.5 31t77 13q2 12 1.5 20t-1.5 19q-13 1 -23 3.5t-23 2.5q-58 0 -90 -14.5t-47.5 -34.5t-20 -41t-7.5 -33h-16q-14 24 -17 40t-3 37q0 47 22 75.5t57 45t79 22t89 5.5q0 39 10 67t28.5 49.5t44 38.5t54.5 34q33 20 49 25.5
t23 9.5q4 1 31.5 19t58.5 38t56 37t23 17q34 0 56.5 -20t40 -48.5t34.5 -59.5t40 -54q25 20 50.5 51t47 61t38.5 52t26 22q36 0 54.5 -12t27.5 -27.5t14 -31t14 -23t27 -3t54 29.5q0 -2 2 -3.5t2 -3.5q0 -9 -8.5 -19.5t-19 -24.5t-19.5 -32t-9 -40q-2 -80 -1 -161.5
t3.5 -150.5t5 -118t2.5 -63q0 -4 5.5 -14t14 -21t19.5 -19.5t24 -8.5q9 1 26 17t33.5 30.5t29 18.5t12.5 -20zM574 816q0 -32 -12.5 -61.5t-35 -52t-53.5 -36.5t-68 -14t-59 13.5t-35 33.5t-20.5 43.5t-16 43.5t-22 33.5t-38.5 13.5q-12 0 -26 -7t-26 -19t-20 -28.5
t-8 -36.5l3 -19.5t11.5 -41.5t23.5 -39.5t38 -14.5q16 2 41.5 4.5t48.5 0t40 -11t17 -28.5q0 -12 -11.5 -19.5t-26 -12t-27 -6t-14.5 -1.5q-17 0 -32 6.5t-28 13.5t-24 13.5t-19 6.5q-21 0 -43.5 -19.5t-41.5 -45t-31.5 -50t-12.5 -33.5q0 -57 30 -95t63 -58
q47 -28 78 -34.5t52.5 -5t36 5t28.5 -4.5q-30 -15 -65 -15q-25 0 -67 7.5t-82.5 29t-70 59t-29.5 97.5q0 44 20.5 73t45.5 49t46 33.5t21 26.5q0 6 -6 15t-13.5 23.5t-13.5 36t-6 52.5q0 37 22.5 66t53.5 49t63.5 30.5t52.5 10.5q43 0 68.5 -12.5t40.5 -32t22.5 -41.5
t14 -41.5t15.5 -32t27 -12.5q13 0 29 7t16 28q0 12 10 21.5t11 28.5q0 2 -6 17.5t-6 41.5q4 1 6.5 2t5.5 2q9 -15 11.5 -27.5t2.5 -28.5zM1175 297q2 55 2 101t-1 89.5t-2.5 89.5t-3.5 102q-3 13 -11 33t-26 38h-15q-13 -26 -27.5 -37.5t-27 -22.5t-21 -27t-8.5 -50
q0 -11 4 -27t4 -18q43 0 69.5 2.5t54.5 -2.5v-17q-24 -33 -32.5 -52t-11 -30t-2.5 -15.5t-7 -6.5t-24.5 -4.5t-54.5 -8.5q4 -24 4 -64.5t5 -79.5t19 -68t45 -29q25 34 45 57.5t23 46.5zM851 598q0 76 -22 121t-71 58l7 -315q21 29 32 60.5t14 41.5h34q2 10 4 17t2 17z
M738 229v509q0 22 -7 20t-15.5 -14t-15.5 -27t-7 -19v-141q0 -49 5 -103t6 -106t-7 -99.5t-34 -83.5t-74 -57t-128 -21q29 -26 60 -44t69 -18q43 0 71.5 22t45.5 53.5t24 67t7 61.5zM329 588v19q-10 1 -15.5 2t-10.5 1.5t-11 1t-17 0.5t-21 -1t-28 -11q19 -8 33 -15t25 -7
q16 0 22 1.5t23 8.5zM769 -59q0 16 -0.5 19.5t-20.5 12.5q-20 -18 -33 -42.5t-13 -37.5q0 -14 5 -24t17 -23q14 22 29.5 46.5t15.5 48.5z" />
    <glyph glyph-name="N" unicode="N" horiz-adv-x="1166" 
d="M539 781q0 -27 -11.5 -55t-33.5 -50.5t-53.5 -37t-70.5 -14.5q-53 0 -88 21t-50 41q-14 18 -20.5 37t-11 34t-10.5 24.5t-20 9.5t-24 -9.5t-16 -23t-8.5 -28.5t-2.5 -25q0 -58 44.5 -92.5t115.5 -34.5q22 0 35.5 2t23 5t16.5 7t16 8q6 -15 -2.5 -24t-24 -14.5t-35 -7
t-34.5 -1.5q-44 0 -79.5 14t-61.5 35t-40 46.5t-14 49.5q0 33 14.5 64t40 56t61.5 40t78 15q49 0 76.5 -25.5t45 -56.5t31 -56.5t35.5 -25.5q29 0 37.5 22t8.5 50.5t-3.5 55t1.5 35.5q30 -14 32 -40.5t2 -50.5zM1129 201l17 -11l-170 -213q-16 6 -31.5 21t-31 32.5t-30.5 35
t-31 29.5q-8 -5 -22.5 -20.5t-29 -32.5t-26 -31.5t-14.5 -17.5q-5 1 -10.5 2t-10.5 2v11q13 15 29.5 33t31.5 37t26 37.5t12 33.5q4 47 4 81.5v79.5q0 13 0.5 26t-4.5 23.5t-18 17t-40 6.5q-36 0 -48.5 -19.5t-14 -53t1 -77t-3.5 -91.5q-5 -44 -27 -74.5t-56 -50t-77 -28
t-90 -8.5q-36 0 -63.5 7t-53.5 15t-54.5 15t-66.5 7q-64 0 -106 -24.5t-42 -68.5q0 -20 13.5 -42.5t32.5 -41t39 -30.5t32 -12q9 0 14.5 7.5t21.5 20.5t48.5 30.5t94.5 37.5q49 16 89.5 24.5t91.5 8.5q35 0 75.5 -4.5t75.5 -16.5t58.5 -34t23.5 -58q0 -43 -34.5 -67
t-82.5 -36t-100.5 -15t-88.5 -3q-84 0 -130.5 11t-73 24t-41.5 24t-37 11q-6 0 -10.5 -5.5t-10.5 -14t-15 -19t-24 -19.5v11q0 2 6.5 11t14 18.5t14 17.5t6.5 9q0 7 -25.5 20.5t-55.5 38.5t-55.5 63t-25.5 95q0 33 13.5 63.5t37.5 54.5t58.5 38.5t76.5 14.5q33 0 59 -10
t45.5 -22.5t33 -22.5t21.5 -10q31 0 47 18t23 41.5t7.5 45.5t0.5 31q0 20 -8.5 23.5t-29.5 3.5q-33 0 -49 -8.5t-22 -20t-5 -24t1 -20.5h-21q-22 14 -26.5 33t-4.5 26q0 32 14 51t37.5 31t53 20.5t60.5 20.5v12q-12 6 -19 8.5t-12.5 3t-11.5 0.5h-17q-53 0 -90 -14
t-57.5 -36t-24 -49.5t9.5 -54.5q-7 -3 -12 -3q-9 0 -27.5 20t-18.5 67q0 51 24 86t63.5 56.5t90 31t102.5 9.5q0 29 6 52t21.5 44.5t42.5 44t69 49.5q12 8 29 17.5t34 20t30.5 21t18.5 20.5q6 13 6 27t-0.5 26.5t2 23.5t13.5 18q9 -10 10.5 -21t1.5 -21t-0.5 -19t3.5 -17
l139 78q30 -27 48.5 -42t34 -26.5t31 -24.5t38.5 -37q11 6 15 13t9 17t14 24t29 33q5 -2 8 -4t7 -3q-12 -27 -25 -49.5t-23.5 -45t-18 -46.5t-8.5 -54q-2 -59 -3.5 -107t-2 -94t-1.5 -94t-1 -107q4 -37 12.5 -51.5t31.5 -30.5q17 13 32.5 32t18.5 22h14zM838 561q3 18 5 23
t2 10.5t-1.5 19l-5.5 49.5q-1 7 -11.5 21.5t-26 29t-33.5 27.5t-33 17l-10 -218q10 -4 16.5 -9t28.5 -5q7 0 18.5 1.5t22 5t18.5 10.5t10 18zM724 399h109q1 11 1 20v20.5t-0.5 28t-0.5 41.5q-25 -13 -51.5 -12t-57.5 8q-3 -37 -1.5 -62t1.5 -44zM694 722q-18 -14 -32 -33.5
t-15 -33.5q-4 -64 -4 -116.5t1 -103t1.5 -103t-2.5 -115.5q-1 -30 -24 -53.5t-59 -41t-82.5 -29.5t-95.5 -18q13 -17 23 -27.5t22.5 -17t31.5 -9t50 -2.5q52 0 86 20t54 51.5t29 70.5t11 77q3 71 4 129t1 113t-0.5 113t0.5 129zM755 -171q0 16 -11 29.5t-28.5 23t-38.5 15
t-40 5.5h-128q-31 0 -72.5 -12t-82 -29t-75 -36.5t-51.5 -33.5q21 -5 40.5 -14t45 -17.5t60.5 -15t86 -6.5q58 0 111.5 3.5t94.5 13t65 27.5t24 47z" />
    <glyph glyph-name="O" unicode="O" horiz-adv-x="1010" 
d="M990 420q0 -28 -10 -69t-34.5 -87t-67.5 -94.5t-109 -92.5q-24 -17 -60 -33t-75 -29t-78.5 -21t-70.5 -8q-73 0 -154.5 22t-150.5 67t-114.5 113.5t-45.5 161.5q0 34 9 73.5t22.5 76.5t30 68.5t31.5 50.5q9 11 27 35t42 52t51.5 55t53.5 44q31 19 47.5 31t25.5 18.5
t13.5 8.5t10.5 2q4 0 14.5 -6.5t10.5 -10.5q0 -7 -6 -12t-15.5 -11.5t-22 -16.5t-26.5 -27q-9 -11 -12.5 -18t-7 -15.5t-11.5 -20.5t-26 -33q2 -1 5 -4t9 -3q4 0 24 4.5t47 14.5t56.5 24t53.5 34q74 59 111 93.5t47 34.5q8 0 43 -17t79 -47t89 -70.5t73 -87.5
q18 -32 31.5 -59.5t22.5 -56.5t13 -61t4 -73zM767 512q0 24 -21 56.5t-48.5 63.5t-54 55.5t-38.5 30.5q0 -28 -1.5 -51.5t-3 -46t-2 -45.5t1.5 -52q1 -9 11.5 -17t24 -13.5t27 -8.5t19.5 -3q5 0 18.5 2.5t28.5 6.5t26.5 10t11.5 12zM806 346v40q-4 12 -5.5 20t-3.5 16.5
t-6.5 19t-14.5 27.5q-13 -8 -39 -13t-50 -5t-42.5 3.5t-44.5 7.5v-123q31 8 53.5 15.5t54.5 7.5q16 0 27.5 -1t21.5 -2.5t21 -5t28 -7.5zM569 38l4 690q0 18 -12 21.5t-28 7.5q0 -63 0.5 -115.5t0.5 -102t-1 -102t-3 -115.5q-2 -43 -36.5 -68.5t-75.5 -41t-75.5 -24
t-34.5 -17.5q0 -27 33.5 -51.5t76.5 -43t82.5 -29.5t50.5 -11q5 0 9 1t9 1zM806 294q0 9 -12.5 15.5t-29 10t-34 5.5t-27.5 2q-30 0 -49.5 -7.5t-31 -16.5t-16.5 -17t-6 -10v-238h21q24 11 56 34.5t60.5 56.5t48.5 75t20 90zM335 428q-4 29 -7 49t7 48v138l-22 3
q-10 -5 -24 -7t-18 -5q-2 -3 -10 -34.5t-16.5 -69t-15 -69t-6.5 -33.5q0 -40 6.5 -72.5t15.5 -60.5t19 -53t18 -51q18 8 29 39t16 67t6.5 68.5t1.5 42.5z" />
    <glyph glyph-name="P" unicode="P" horiz-adv-x="996" 
d="M448 756q0 -22 -11 -47.5t-30.5 -47t-47.5 -35.5t-62 -14q-16 0 -37.5 5.5t-42.5 17t-38.5 28.5t-26.5 40q-6 15 -7 34t-4 36t-11 28.5t-28 11.5q-17 0 -36.5 -17.5t-19.5 -39.5q0 -3 3.5 -19t11.5 -36.5t21 -41.5t33 -35q37 -25 67.5 -29.5t52 -2t33 6t11.5 -6.5
t-20 -14t-54 -4q-36 0 -70 13t-59.5 36t-40.5 54.5t-15 68.5q0 28 12.5 53t34.5 44t52.5 30.5t67.5 11.5q55 0 91 -29t47 -58q8 -22 9.5 -44.5t3.5 -39.5t8 -28t23 -11q23 0 33 20t13 44.5t2.5 46t-0.5 23.5q18 -10 24.5 -23.5t6.5 -29.5zM976 603q0 -39 -13.5 -86.5
t-56.5 -78.5q-27 -20 -59.5 -28.5t-62.5 -12t-55 -5.5t-39 -9l-5 -168q-1 -21 15 -34.5t35.5 -21.5t36 -11t17.5 -3q14 0 29 33.5t42 81.5q7 -2 15.5 -3t8.5 -9q-1 -2 -13.5 -27.5t-33 -66.5t-41.5 -79.5t-38 -66.5t-23 -28q-5 0 -34.5 14t-79 31.5t-116 31.5t-145.5 14
q-48 0 -99 -8t-92.5 -25t-68 -43.5t-26.5 -64.5t29 -72.5t82 -61t125.5 -42t159.5 -15.5q20 0 70 3.5t101.5 14t91 30.5t39.5 53q0 3 -14.5 20.5t-41 36.5t-64.5 34.5t-86 15.5q-51 0 -101 -9.5t-95 -23.5t-83 -31.5t-64 -32.5h-21q-1 3 -3.5 5.5t-2.5 7.5q0 14 33 33.5
t83 37.5t108.5 30.5t109.5 12.5t100.5 -11.5t89 -30.5t63.5 -44t24 -51q0 -31 -25 -56t-68 -43t-101.5 -27.5t-124.5 -9.5q-81 0 -162.5 15t-146.5 45t-106 75.5t-41 105.5q0 44 23.5 78t59 59.5t78.5 44t82 31t68 20t38 11.5q-8 3 -7 3.5t-22 0.5l-10 8q24 15 38 25
t20.5 20t8 23.5t1.5 35.5t-23 22q-21 0 -48 -1.5t-52 -5t-42 -10.5t-17 -18q0 -9 12 -14t25 -14v-12h-31q-48 18 -63 32.5t-15 37.5q0 41 28 60t67 26t81 6.5t71 2.5v25q-8 2 -12.5 5.5t-12.5 3.5h-125q-38 0 -68.5 -13.5t-52 -33t-33 -40t-11.5 -35.5q0 -12 10 -30
t32 -35.5t56.5 -30t82.5 -12.5q16 3 32 8t29 9t21.5 6t9.5 -3q-13 -23 -41 -29t-72 -6q-46 0 -84 16.5t-66 41t-43.5 53.5t-15.5 54q0 64 41.5 106t102.5 63q52 18 90.5 19.5t64.5 0.5t40.5 2.5t18.5 25.5q10 56 58.5 96.5t110.5 81.5q10 7 48 27.5t79 42.5t74.5 39t35.5 17
q6 0 19 -10t32 -23q40 -29 64 -48t37 -43.5t17 -61.5t4 -103zM767 612q0 40 -1 60t-6 31.5t-16.5 20t-32.5 25.5l-9 -326q25 5 38.5 18.5t19.5 36.5t6.5 56.5t0.5 77.5zM665 423l4 347q-5 2 -9 4t-6 7q-21 -13 -30 -51t-11 -85t-1 -95.5t0 -82.5q3 -13 4.5 -20.5t5.5 -11
t13.5 -6t29.5 -6.5zM657 193l8 197q-13 0 -19.5 0.5t-21.5 4.5q-9 -21 -5.5 -38.5t-3.5 -37.5q-13 -36 -43.5 -57.5t-66 -34.5t-69.5 -20t-55 -14h276z" />
    <glyph glyph-name="Q" unicode="Q" horiz-adv-x="1002" 
d="M982 427q0 -17 -5 -43.5t-13.5 -55t-20 -55.5t-23.5 -46q-14 -22 -31.5 -43.5t-34 -39.5t-29.5 -30.5t-18 -15.5q-26 -17 -42.5 -26.5t-25.5 -14.5t-12 -8t-3 -7q0 -3 13.5 -21.5t31.5 -38.5t37.5 -36.5t32.5 -16.5q16 0 30.5 13.5t28.5 29.5t26.5 29.5t24.5 13.5
q22 0 19.5 -8.5t-20.5 -26t-47.5 -44.5t-62.5 -63q-30 -33 -45 -55.5t-24 -36.5t-15 -20.5t-17 -6.5q-3 0 -20 5t-39.5 17t-46 32t-39.5 49q-16 30 -20 52t-3 37t2 24t-5 13q-11 7 -27.5 2t-51.5 -5q-74 0 -156.5 23.5t-151.5 71t-114 118.5t-45 167q0 91 37 171t91 144
t115 108.5t107 64.5l27 -4q-2 -5 -16 -20t-32 -35t-37.5 -42t-32.5 -40.5t-16 -30.5t10 -12q11 0 33.5 7t49.5 19t57 26.5t56 29.5q50 29 82.5 53t51.5 41t29 26.5t15 9.5q8 0 36.5 -12.5t67 -38.5t80 -65.5t75.5 -93.5q45 -71 60.5 -128.5t15.5 -110.5zM761 521
q0 5 -14 33.5t-37.5 62.5t-54 64.5t-63.5 39.5v-209q11 -8 29 -21.5t34 -13.5q52 0 79 17t27 27zM798 339v87q0 16 -7 25.5t-13 25.5q-27 -17 -65.5 -24.5t-61.5 -7.5q-1 0 -17 3.5t-38 13.5q0 -42 1.5 -77t5.5 -55q15 8 32 14t31 10.5t24 6.5t12 2q30 0 50.5 -5.5
t45.5 -18.5zM797 277q0 23 -32 37t-65 14q-10 0 -28 -5t-34.5 -14t-29 -21.5t-12.5 -27.5v-92q11 -5 25 -14t28 -19.5t26 -22.5t19 -22q6 5 23 20.5t34.5 39.5t31.5 56t14 71zM566 710q0 3 -0.5 10.5t-3.5 15.5t-8.5 14.5t-14.5 6.5q-12 0 -25.5 -14.5t-13.5 -24.5v-390
q0 -52 -27 -80t-63.5 -42t-72.5 -21t-54 -17q24 -31 35.5 -47.5t22.5 -28.5t27 -24t50 -33q-16 29 -18.5 58.5t12.5 52.5t50.5 34.5t97.5 4.5q1 77 3.5 139.5t4 122.5t1.5 123t-3 140zM325 276q1 54 0.5 98t-1.5 86.5t-2.5 87t-2.5 99.5q-31 -7 -49.5 -25t-28.5 -42t-13 -52
t-3 -55v-31t1 -19t2 -22t4 -40q2 -26 5.5 -45t8.5 -36.5t10.5 -35t12.5 -40.5h14q18 15 29 27t13 45zM566 14v112q-13 8 -29.5 14t-29.5 6q-8 0 -20.5 -4.5t-24 -12t-20.5 -18.5t-9 -24q0 -9 5.5 -22t17 -25t29 -20.5t39.5 -8.5q5 0 16 1t26 2z" />
    <glyph glyph-name="R" unicode="R" horiz-adv-x="1061" 
d="M522 807q0 -36 -11.5 -67.5t-31 -54.5t-44.5 -36.5t-51 -13.5q-47 0 -68.5 30t-36.5 66.5t-31.5 66.5t-52.5 30q-3 0 -13 -5t-20.5 -16.5t-19 -29t-8.5 -42.5q0 -33 15 -54t39 -34t54 -21t62 -15q-4 -3 -7.5 -7t-13.5 -4q-52 0 -86.5 15.5t-55 40.5t-29 56t-8.5 62
q0 24 12.5 45t35 37t53 25.5t66.5 9.5q50 0 87.5 -20.5t48.5 -46.5q6 -14 9.5 -32.5t7 -34.5t10 -27t18.5 -11q26 0 35.5 14.5t11.5 36t1 46t4 43.5l12 6q6 -17 8 -24t1.5 -11.5t-2 -8.5t-1.5 -14zM1023 184h18q-11 -34 -23 -63t-25 -51q-37 -63 -51.5 -82t-21.5 -19
q-10 0 -19.5 7.5t-15.5 10.5q-49 27 -74 54.5t-36 51.5t-14.5 43t-10.5 29q-19 -11 -44.5 -40t-48 -60t-38.5 -56t-16 -26q-74 30 -127 43.5t-114 13.5q-41 0 -70 -5.5t-50.5 -16.5t-38.5 -27.5t-33 -38.5v-28q13 0 34.5 5t52 11.5t71.5 12t93 5.5q24 0 79 -6t111.5 -20.5
t99.5 -38t43 -59.5q0 -19 -17.5 -34.5t-47 -26.5t-68.5 -17t-83 -6q-60 0 -105 10.5t-58 10.5t-26.5 -18t-37.5 -39t-62.5 -39t-101.5 -18q-32 0 -56 11.5t-39.5 28t-23.5 34t-8 29.5q0 36 19 61.5t42.5 42.5t43 26.5t19.5 13.5q0 2 -7 21t-2 58q3 23 34 56.5t70 63t74.5 48
t47.5 10.5q26 27 38.5 36.5t17.5 17t4.5 19.5t-0.5 44v24.5t-4 18t-15.5 11.5t-33.5 4q-25 0 -48 -7.5t-37 -22.5q7 -7 13.5 -14.5t-10.5 -7.5q-29 0 -40 15.5t-11 33.5q0 28 14.5 43.5t36 23t46.5 9.5t46.5 3t36 4t14.5 12q0 11 -19.5 15t-48.5 3t-63 -8t-63.5 -19.5
t-48.5 -29.5t-19 -39q0 -15 14 -32t38 -30.5t55.5 -22.5t65.5 -9q6 -6 4.5 -9t-6 -4t-10 -1h-7.5q-42 0 -77.5 13.5t-61 34t-40 44.5t-14.5 44q0 16 10 38t10 39q0 7 10 15.5t22 19.5q28 26 68.5 38t79.5 21t70 21t40 37q18 48 57.5 75t80.5 48t72.5 44t31.5 63h19v-24
q4 0 5.5 -2t3.5 -2q7 0 22.5 7.5t33 17t33.5 17t24 7.5q55 -30 88.5 -59t39.5 -73q0 -66 -7.5 -107.5t-28.5 -71.5t-58.5 -53.5t-98.5 -52.5q10 -9 35 -16.5t53.5 -21.5t54 -38t37.5 -66q7 -25 5.5 -52t0 -51t12 -42t41.5 -24q17 26 20 34.5t8 19.5zM777 653q0 23 -6.5 38.5
t-17 27t-23.5 20.5l-26 18l-14 -286q4 -16 8 -18.5t13 -7.5q22 19 35 52.5t19.5 67t9 59.5t2.5 29zM674 434v323q-32 -22 -43 -46.5t-14 -71.5q-2 -33 -3 -60.5t-1.5 -54t-0.5 -54v-60.5q23 8 31 11t31 13zM759 305q0 59 -16.5 86t-29.5 27q-6 0 -10 -4t-9 -8v-261
q26 27 39.5 41.5t19 28t6 33t0.5 57.5zM663 109l5 290q-21 -7 -32.5 -11t-18 -12t-9.5 -23t-5 -43q-5 -54 -39 -89.5t-121 -59.5q19 -5 43.5 -6t52 -4t59 -12t65.5 -30zM730 -168q0 21 -35.5 36.5t-86.5 26.5t-106 16.5t-94 5.5q-62 0 -105.5 -5t-71 -11.5t-41 -12.5
t-15.5 -7q20 -18 43 -33t45.5 -26t42.5 -17.5t33 -6.5q11 0 6 16t-5 26h21q5 -13 8.5 -26t20.5 -23.5t54 -17t108 -6.5q58 0 93 10t53.5 22t25 22t6.5 11zM340 -233q0 7 -12 10.5t-35.5 13t-57.5 28.5t-77 57q-52 -27 -86.5 -53.5t-34.5 -76.5q0 -34 30 -52.5t70 -18.5
q42 0 79 13t64.5 29t43.5 31t16 19z" />
    <glyph glyph-name="S" unicode="S" horiz-adv-x="978" 
d="M958 829q0 -5 -2 -38.5t-4.5 -88t-5 -125.5t-3.5 -151q0 -23 -11 -48.5t-36 -56.5t-66.5 -68.5t-103.5 -85.5q-27 -21 -55 -48.5t-52.5 -53t-42.5 -44.5t-24 -24q-21 12 -34 25t-25 25.5t-26 23t-38 16.5q-36 -47 -73.5 -89t-76.5 -74t-78 -51t-77 -19q-32 0 -52 12
t-32 29.5t-16 38t-4 37.5q0 29 17 63.5t45 68.5t65 62.5t79 44.5q76 29 123.5 30.5t77 1.5t46.5 11.5t32 60.5q-17 7 -36.5 11.5t-37 7.5t-29.5 5t-15 2q-43 12 -76 32.5t-55 45.5t-33 51t-11 50q0 27 8 45t18.5 31t21 23.5t14.5 22.5q0 2 -3.5 14t-6.5 29.5t-2.5 38.5
t8.5 41q15 39 44.5 68t66.5 47.5t77.5 27.5t76.5 9q54 0 90.5 -10.5t69 -21t67 -15.5t83.5 7q0 -4 3 -6t3 -5q0 -7 -11 -13.5t-29 -16.5t-41.5 -25.5t-48.5 -40.5q-20 -20 -32.5 -33.5t-21.5 -25t-17 -22.5t-21 -26q-13 7 -18.5 34t-22 56.5t-53 53t-112.5 23.5
q-36 0 -58.5 -7t-35 -18t-17 -24t-4.5 -25q0 -30 27 -50t66 -33t82 -21t74 -13q36 -6 56 -9.5t31.5 -5.5t18.5 -3t17 -1t34 24l58 58t76 72.5t90 66.5h16l2 -6t2 -5zM856 361q0 25 -21 45t-52.5 33.5t-68 21t-67.5 7.5q-16 0 -17.5 -7t-4.5 -13q36 -9 73 -16.5t68 -20.5
t50.5 -35t19.5 -60q6 7 13 19t7 26zM569 456h20q2 9 0 20q-71 3 -119 11.5t-82.5 23t-59.5 36t-49 51.5q-1 -5 -3 -9t-2 -9q0 -22 19 -39t48.5 -30t64.5 -21.5t67.5 -15t58.5 -10.5t37 -8zM743 246q0 13 -24.5 24.5t-56.5 20t-62.5 13.5t-42.5 5q-6 0 -15 -11t-17 -25
t-14 -25.5t-6 -13.5q31 -9 48 -14t30 -11.5t28.5 -17.5t44.5 -31q30 20 47.5 35.5t26.5 26.5t11 17t2 7zM390 102q0 6 -16 11t-35.5 8t-37 4.5t-21.5 1.5q-49 0 -90.5 -12.5t-72 -35t-48 -53.5t-17.5 -68q0 -15 4 -30t14 -27t28 -19.5t45 -7.5q15 0 35.5 10t41.5 25t40 31.5
t30 28.5q8 9 24.5 30t33.5 43.5t29.5 40t12.5 19.5z" />
    <glyph glyph-name="T" unicode="T" horiz-adv-x="841" 
d="M821 359q0 -65 -26 -127.5t-74.5 -111.5t-117.5 -79t-155 -30q-59 0 -128 16.5t-127.5 52t-97.5 91t-39 134.5q0 19 6.5 56.5t26.5 84t57.5 97.5t100.5 96q-6 0 -7 2t-2 2q-6 0 -30 -10t-64 -10q-53 0 -88.5 31.5t-35.5 76.5q0 27 13 64.5t44 71.5t82.5 57.5t126.5 23.5
q39 0 84.5 -10t95 -21.5t103 -21.5t107.5 -10q37 0 73.5 13t40.5 46q12 -5 16 -7.5t4.5 -5.5t-1 -8t-1.5 -14q0 -46 -22 -77t-48.5 -50.5t-50 -29.5t-26.5 -15q-2 -19 -3.5 -41.5t-1.5 -48.5v-498q35 19 64.5 57t46 84.5t17 95.5t-20.5 90q6 2 10.5 5.5t11.5 3.5
q10 0 23 -30.5t13 -95.5zM631 192v542h-32q-12 -22 -29 -42.5t-22 -40.5q-10 -36 -9 -86t4 -102t2 -99t-16 -77q-12 -23 -34 -39.5t-49 -27.5t-56.5 -17t-55.5 -7q14 -20 38 -38t52.5 -31.5t59 -21.5t55.5 -8q46 0 69 21t23 74zM538 734l-380 68q-39 -4 -68 -22t-29 -55
q0 -21 11 -35t24.5 -22.5t26 -11.5t16.5 -3q13 0 32.5 4.5t38 14t32 24t14.5 34.5q0 6 -3.5 16t-3.5 19h34q0 -2 2.5 -10t5 -17t4.5 -17t2 -10q0 -11 -6 -27t-16 -22q17 10 39 22t43 22.5t39 17.5t25 7q8 0 11 -3t3 -14q-100 -51 -139.5 -124t-39.5 -161q0 -95 21.5 -142.5
t39.5 -63.5q21 16 31 35.5t10 35.5v171q0 55 -0.5 90.5t14.5 63.5t52.5 53.5t113.5 61.5z" />
    <glyph glyph-name="U" unicode="U" horiz-adv-x="1096" 
d="M456 798q0 -50 -39.5 -86.5t-104.5 -36.5q-39 0 -59.5 13.5t-31 33.5t-14.5 43t-8.5 43t-13 33.5t-29.5 13.5q-24 0 -47.5 -29t-23.5 -77q0 -44 25 -65.5t57.5 -31.5t63.5 -13t44 -9q-5 -2 -14 -4.5t-22 -2.5q-66 0 -103.5 14.5t-55.5 36t-22.5 46t-4.5 43.5
q0 30 13.5 56.5t39 47t61 32.5t80.5 12q54 0 79.5 -21t37 -49t17 -55.5t18.5 -40.5q17 14 26.5 30.5t9.5 23.5q0 15 -4 30.5t-9.5 27.5t-9.5 20l-4 8q0 13 7.5 7t16.5 -22t16.5 -36.5t7.5 -35.5zM1076 249q0 -1 -21.5 -38.5t-55.5 -94.5q-1 -2 -12 -21.5t-26 -42t-30 -41
t-24 -18.5q-25 0 -40.5 19t-34.5 49t-48 68.5t-82 77.5q-2 0 -21.5 -24.5t-43 -53.5t-43 -54t-20.5 -26q-2 -3 -7.5 -11t-12 -15.5t-13 -13.5t-11.5 -6q-8 0 -34 22.5t-56.5 50.5t-58.5 52t-41 27q-15 -19 -31.5 -39.5t-47.5 -51.5q-5 2 -12 5t-15 8q5 4 18.5 18.5t28 32
t26.5 35.5t14 29q4 27 4.5 59t0.5 71q0 27 -20.5 37.5t-45 10.5t-45.5 -8.5t-22 -21.5q0 -15 19 -18t36 -11q-7 -4 -9.5 -6.5t-8.5 -2.5q-21 0 -39.5 7t-31.5 17.5t-21 22t-8 20.5q0 33 19.5 48t48.5 20t62 3.5t61 -1.5q5 10 5 14q0 10 -25.5 19t-47.5 9q-26 0 -58 -6.5
t-60.5 -19.5t-48 -32.5t-19.5 -44.5q0 -51 31.5 -75t70 -33t71 -8t35.5 1v-13q-19 -1 -31 -2.5t-27 -1.5q-45 0 -81.5 13t-62 35t-39.5 50.5t-14 58.5q0 51 32.5 86t77.5 58q39 20 71.5 25t56.5 5.5t40 1t23 12.5q5 9 6 18t0.5 17t-0.5 15t4 10q1 1 33 12t71 42q31 24 48 47
t27.5 43.5t17.5 39t19 33.5q1 -2 8.5 -3t7.5 -6q-12 -77 -25 -144t-13 -140q0 -17 8 -25.5t20 -11.5t25.5 -3h23.5q40 0 65.5 3.5t40 12t19.5 22t5 34.5q0 1 -1 16.5t-5.5 33.5t-14 33t-26.5 15q-13 -1 -21.5 -13t-17 -24.5t-20.5 -19.5t-32 3q21 20 34.5 35t23 28.5
t18 26.5t20.5 29q27 36 40.5 58.5t20.5 35t10.5 17t9.5 4.5q8 0 29.5 -21.5t44.5 -47t42 -48t21 -23.5q22 22 36 41.5t24 29.5h21q-1 -13 -11 -26.5t-21.5 -27t-21.5 -28t-12 -29.5q-1 -6 -3.5 -37.5t-5 -68.5t-4.5 -68t-3 -36q1 -31 0.5 -56t-0.5 -48.5t1 -48.5t4 -55
q4 -42 17 -71t51 -64h15q0 13 15 46t37 61h25q0 -3 2 -5t2 -5zM538 437l179 1v80q-15 -1 -35.5 -4t-44.5 -4.5t-51 -0.5t-55 7q-3 -21 -5 -27.5t-2 -10.5t3 -11t11 -30zM717 385q0 11 -11 17.5t-27 11t-33.5 6t-29.5 1.5q-30 0 -48 -8t-27.5 -23t-12.5 -35t-3 -44
q0 -47 24 -75t85 -60q21 23 36.5 41t26 39.5t15.5 51.5t5 77z" />
    <glyph glyph-name="V" unicode="V" horiz-adv-x="1006" 
d="M483 862q0 -32 -13.5 -63t-36.5 -55t-52 -39t-59 -15q-51 0 -75 23.5t-37 51.5t-22.5 51.5t-31.5 23.5q-3 0 -14.5 -5t-24.5 -15.5t-23.5 -26t-10.5 -36.5q0 -37 19 -59t49.5 -33.5t69 -14.5t78.5 -3q5 -24 -12 -26t-38 -2q-37 0 -72 9t-62 25.5t-43 39.5t-16 52
q0 36 19 65.5t46.5 50t58.5 32t55 11.5q47 0 74 -14.5t44.5 -35.5t29.5 -44.5t27 -40.5q12 4 27 12.5t15 27.5q0 5 2 8.5t4 11t2 21t-3 38.5q19 11 22.5 2t3.5 -28zM986 763q0 -5 -21.5 -20t-47 -37t-47 -49.5t-21.5 -58.5v-107q0 -9 1.5 -44t1.5 -77t-2.5 -81.5
t-10.5 -57.5q-5 -10 -11 -21.5t-18 -27t-32.5 -36t-52.5 -47.5q-61 -53 -102 -79.5t-49 -26.5q-17 0 -45.5 24t-59.5 54.5t-59 58t-44 34.5q-9 -9 -15 -19.5t-13.5 -23.5t-21 -31t-37.5 -42h-22q0 5 -4 7.5t-4 4.5q0 3 8.5 10.5t21.5 21.5t28 35.5t27 51.5q10 26 13 43.5
t3.5 30t0.5 22t5 19.5v67q-26 0 -30.5 2t-9.5 2q-47 0 -67.5 -13.5t-13.5 -46.5q-9 3 -23.5 7.5t-28.5 12.5t-24.5 21t-10.5 32q0 35 26 52t60.5 24t69.5 8.5t52 5.5v16q-13 0 -25 2.5t-28 2.5q-24 0 -63 -8t-75.5 -24t-63 -39.5t-26.5 -53.5q0 -34 33 -51t75.5 -24t81 -6.5
t48.5 0.5v-20q-18 0 -32 -0.5t-32 -0.5q-51 0 -93 14.5t-72 36.5t-47 48.5t-17 50.5q0 45 21.5 80.5t58.5 60t86.5 37t106.5 12.5q39 0 53.5 3t16 8.5t-4 13.5t-7 17t6.5 20t37 22q17 6 38.5 19t41 30.5t32.5 37.5t13 40q1 3 5.5 20.5t12.5 38t14 20.5q16 0 19 -11t1 -24.5
t-6.5 -24.5t-4.5 -12q-8 -143 -12.5 -280t1.5 -282q0 -10 24.5 -38t56.5 -49q12 17 12 24q3 99 3.5 180t0.5 158.5v158t1 179.5q11 13 15.5 11t5.5 -9.5t0 -15t-1 -4.5v-294q0 -12 17 -21t54 -9q31 0 48 4.5t24.5 13.5t8.5 22.5t1 32.5q0 46 -21 71.5t-46.5 41.5t-46.5 27.5
t-21 28.5q53 53 91 87t53 38q4 0 8 -3t12.5 -11.5t22.5 -22t38 -34.5q3 -2 19.5 -14t36 -27.5t19.5 -20.5zM676 437h141v75h-141q-1 -8 0 -14t2 -13.5t1 -18.5t-3 -29zM817 356q0 17 1 29.5t-3.5 20.5t-18.5 11.5t-44 3.5q-23 0 -38 -6.5t-24 -14t-12.5 -14.5t-3.5 -8v-207
q0 -13 6 -23.5t24 -10.5q20 0 23 12.5t3 14.5q5 7 19.5 17t29.5 30t26.5 54.5t11.5 90.5z" />
    <glyph glyph-name="W" unicode="W" horiz-adv-x="1350" 
d="M485 838q-1 -24 -12 -56.5t-32 -62t-53.5 -50t-77.5 -20.5t-67.5 13t-32 32.5t-10 42t-2 42t-8.5 32.5t-30 13q-15 0 -26 -10t-18 -22.5t-10.5 -24t-3.5 -13.5q0 -38 17 -60t42.5 -35.5t55.5 -23t57 -22.5v-15h-29q-51 18 -83 36t-51 36.5t-26 38.5t-7 43q0 7 7.5 23.5
t7.5 33.5q32 35 68 61t91 26q43 0 69 -24.5t40.5 -55t21 -58t9.5 -33.5h17q26 23 36.5 41t13 35.5t0 35.5t-2.5 39q3 0 4 2t6 2q16 0 17.5 -13t1.5 -29zM1330 745q-8 -12 -33.5 -24.5t-51 -38t-42 -70t-6.5 -121.5q1 -11 0.5 -16t-0.5 -15v-211q-69 -83 -129.5 -148.5
t-129.5 -120.5l-227 207q-4 -3 -17.5 -21.5t-36.5 -46t-55.5 -61.5t-74.5 -67q-19 11 -42 30t-45.5 41t-43 42.5t-35.5 33.5q-18 -10 -35.5 -43t-41.5 -67q-11 2 -15 3t-15 5v16q10 10 25.5 29t29 41.5t23.5 46t10 41.5v106q-10 5 -20 9t-30 4q-12 0 -29 -5.5t-27.5 -13
t-9 -15t27.5 -10.5q-5 -6 -10 -10t-14 -4q-34 0 -57 20t-23 46q0 45 53.5 62.5t138.5 17.5v18q-13 5 -35.5 9t-33.5 4q-30 0 -66 -7t-66.5 -21t-51 -36t-20.5 -51q0 -13 13 -31.5t37.5 -33.5t60 -22.5t80.5 3.5q7 -10 2.5 -15.5t-14.5 -8.5t-20.5 -3.5t-15.5 -0.5
q-41 0 -76 15t-61 38t-40.5 50t-14.5 51q0 31 15 57.5t36 47t43 33.5t36 17q60 20 97.5 22.5t58.5 2t28.5 3t7.5 24.5v48q3 4 16 7.5t32 13t42 26.5t47 48q23 30 29 58t7.5 49.5t5.5 34.5t22 13q10 0 20 -6t10 -16q0 -2 -4.5 -15t-10.5 -35.5t-10.5 -53.5t-4.5 -68v-457
q0 -7 24 -31.5t63 -50.5q6 3 21 20t30.5 38t27.5 41t12 31q2 48 1 77t-12.5 43t-38.5 16t-77 -4q0 1 -3.5 2.5t-3.5 8.5q0 4 13 28.5t24 90.5q27 0 48.5 2t48.5 2q0 1 2 14t3.5 31.5t2.5 39t-1 37.5q-3 15 -46 52q-6 -5 -20 -18t-28 -23.5t-25 -12.5t-11 16q0 4 7 10
t19 17.5t28.5 30t34.5 47.5q6 9 13 24t15.5 31t19 29t23.5 19l144 -127q15 12 24.5 23.5t17.5 23t17 23.5t24 25h16q13 1 2 -11.5t-29 -35t-35.5 -53t-17.5 -65.5v-139q33 -14 65 -7t54 7q6 0 12 -3l10 -5q-17 -37 -26 -65.5t-20 -66.5q-14 2 -30.5 3.5t-30.5 0t-24 -6.5
t-10 -16v-115q0 -14 16 -33.5t38 -39t45 -37.5t37 -29q6 3 23.5 20t36 38.5t33 43.5t14.5 37v329q0 4 -7.5 17t-24.5 30t-43.5 35t-63.5 33v21q34 3 59.5 24.5t43 47t26.5 46.5t10 23q7 -3 11.5 -10.5t19.5 -23t45.5 -40.5t89.5 -64z" />
    <glyph glyph-name="X" unicode="X" horiz-adv-x="1006" 
d="M986 783q0 -30 -11.5 -58.5t-33 -51.5t-51.5 -36.5t-67 -13.5q-23 0 -41 8.5t-52 18.5q-5 -6 -13.5 -23.5t-16.5 -36.5t-14 -35t-6 -20q0 -15 29 -19t67.5 -4t76 1.5t54.5 -2.5v-11q0 -2 -7.5 -16t-17.5 -30t-19.5 -31t-12.5 -18q-12 -10 -32 -10t-39.5 1.5t-34 1.5
t-14.5 -10q12 -42 26 -79.5t30.5 -66.5t36 -46t44.5 -17q17 0 32.5 29t49.5 89h14q6 -9 2.5 -21.5t-14 -31.5t-26.5 -46.5t-35 -65.5q-20 -41 -31 -68t-17.5 -42.5t-11.5 -22t-14 -6.5q-19 0 -50 21.5t-63.5 52t-61 62.5t-43.5 53q-12 16 -16.5 28.5t-7 23t-6 21t-12.5 22.5
q-20 -15 -39 -53t-37.5 -81.5t-36.5 -83.5t-35 -59q-24 9 -44 18.5t-39.5 16.5t-41 12t-48.5 5q-36 0 -68 -8.5t-57 -23t-39.5 -33.5t-14.5 -41q0 -46 39.5 -86.5t96 -71t118.5 -49.5t107 -20q5 0 32.5 -0.5t61 -0.5h64.5t45 1q15 1 59.5 6.5t91 18.5t83 35t36.5 56
q0 5 -7.5 21.5t-31.5 34.5t-68.5 32t-117.5 14t-117 -11t-74 -28.5t-52 -39.5t-51 -44h-15q0 18 -3.5 23t-3.5 6q0 3 17.5 22.5t55.5 41.5t97 39.5t142 17.5q47 0 93 -9.5t82 -26.5t58.5 -42t22.5 -55q0 -33 -26.5 -60t-71.5 -46.5t-105 -30t-128 -10.5q-99 0 -199.5 18.5
t-182 54.5t-133 90.5t-51.5 126.5q0 12 6.5 43.5t33 66t80 64t148.5 38.5q48 4 76 -1.5t45 -10t27.5 -1.5t22.5 26q6 12 19.5 34.5t27.5 46t24 42t10 21.5q0 36 -16 48.5t-43.5 13.5t-63 -4t-74.5 -5q-11 0 -13.5 0.5t-3.5 1t-4 1.5t-14 2l-5 5q22 29 34 48t12 39
q0 16 8.5 20.5t19.5 4t21 -3.5t12 -3q3 0 14.5 2t60.5 2q0 4 2.5 6t2.5 6q0 9 -11.5 39t-29.5 62t-40 57t-43 25q-5 0 -16 -13t-24 -28.5t-26 -28.5t-21 -13q-22 0 -22 14q0 1 10 12t32 38.5t57.5 74t86.5 118.5q63 -57 100 -97t57.5 -68t28.5 -46t12 -31.5t8 -25t16 -25.5
q8 9 25.5 47.5t39 84t43.5 87.5t40 58h17q2 -17 5.5 -36t12 -35.5t23 -27.5t37.5 -11q8 0 19 2.5t18.5 11t8 24.5t-12.5 44q22 9 33.5 -11.5t11.5 -45.5z" />
    <glyph glyph-name="Y" unicode="Y" horiz-adv-x="1039" 
d="M492 811q0 -13 -7.5 -37.5t-27 -49t-54 -42.5t-87.5 -18q-51 0 -75.5 21.5t-30.5 51.5q-2 8 -1 22t-2 27t-12 22.5t-29 9.5q-18 0 -37.5 -21t-19.5 -56q0 -39 20.5 -60t50 -32t61 -15t52.5 -8v-11q-27 -4 -63.5 1t-69 20t-55.5 40.5t-23 62.5q0 26 13 50t35.5 42t54 29
t67.5 11q46 0 83 -19.5t47 -54.5q2 -8 1.5 -19t1 -20.5t8 -16t21.5 -6.5q20 0 29.5 11t12.5 29.5t2 41.5t-1 47h22q0 -1 3 -10t6.5 -22.5t3.5 -20.5zM1019 783q0 -6 -13 -18.5t-28.5 -32t-28 -46t-12.5 -60.5v-581q0 -23 11.5 -51.5t11.5 -67.5q0 -40 -18.5 -69.5t-50.5 -49
t-73.5 -29.5t-88.5 -10q-33 0 -82 11.5t-97.5 26t-88 26t-54.5 11.5q-19 0 -41.5 -10t-22.5 -27q0 -30 29 -53t67.5 -39.5t76 -25t54.5 -8.5h113q33 0 73.5 13t78 29.5t66 30t36.5 15.5q-7 -15 -32 -34.5t-65 -37.5t-93.5 -30.5t-116.5 -12.5q-67 0 -135.5 12t-123.5 37
t-89.5 62.5t-34.5 88.5q0 1 6.5 19t28.5 39t65 38.5t117 17.5q48 0 104 -15.5t108.5 -33.5t97 -33t69.5 -15q45 0 66 18.5t21 45.5q0 24 -14 50t-39.5 57.5t-61 71t-78.5 90.5q-19 -10 -47 -44t-55 -71t-49 -66t-31 -29q-7 0 -22 15.5t-36.5 38.5t-48 50t-56.5 50
q-21 -11 -41 -40.5t-42 -58.5q-5 2 -11.5 4t-9.5 4q4 11 15 22.5t23 33t21.5 60t9.5 103.5q0 35 -13.5 44t-46.5 9q-15 0 -30 -4.5t-27.5 -10t-21 -10t-8.5 -5.5q5 -2 17.5 -5.5t20.5 -7t7 -6t-23 -2.5q-30 0 -51 18t-21 37q0 22 15.5 39.5t42 28.5t62 15.5t76.5 1.5
q2 12 -3.5 18t-14.5 9t-19.5 3.5t-18.5 0.5q-29 0 -68 -12.5t-74.5 -31.5t-60.5 -42t-25 -44q0 -39 23 -56t55.5 -21.5t67.5 -0.5t60 7v-16q-12 -5 -18.5 -7t-13.5 -3t-17 -1h-27q-34 0 -67 9.5t-58.5 27.5t-41 44t-15.5 59q0 21 14.5 55.5t49 67t92 56.5t143.5 24
q27 0 35 7t8 16.5t-3 18.5t1 14q3 3 10 5t19.5 8t31 17.5t43.5 32.5q37 32 53 57.5t20.5 45t2.5 32.5t-1 19q16 -11 19 -28t0.5 -48.5t-7.5 -81.5t-5 -126q0 -12 9.5 -19.5t24 -12t30.5 -6t28 -1.5q58 0 78.5 16t20.5 56q0 9 -2 24.5t-8 31t-15.5 27t-24.5 11.5
q-4 0 -11.5 -9t-18 -18.5t-23.5 -16t-27 -1.5v13q18 13 44 38.5t51.5 56.5t47.5 63.5t32 58.5q46 -46 80.5 -80t62.5 -63q22 11 38.5 30t34.5 42h14q4 0 5.5 -5.5t1.5 -4.5zM737 403q0 18 -2 44.5t-5 56.5q-14 -3 -20.5 -6.5t-13 -6t-17 -4.5t-32.5 -2q-14 0 -39 3.5
t-52 11.5v-97q15 0 34 4t41.5 7t49 1.5t56.5 -12.5zM730 262v91q0 9 -10.5 15t-24 10t-26 5.5t-17.5 1.5q-56 0 -78.5 -19.5t-22.5 -72.5q0 -45 27 -75t69 -62q13 18 28 36.5t27 33.5t20 24.5t8 11.5z" />
    <glyph glyph-name="Z" unicode="Z" horiz-adv-x="748" 
d="M728 160q0 -19 -11 -49t-38.5 -58t-74.5 -48t-119 -20q-52 0 -89.5 25.5t-71.5 56.5t-70.5 57t-87.5 26q-38 0 -67.5 -16t-29.5 -44q0 -13 5 -24.5t11 -21t11 -18t5 -16.5q0 -32 -32 -32q-28 0 -38.5 18t-10.5 38q0 18 6.5 36t15 36t15 35.5t6.5 33.5q10 18 23.5 37.5
t36.5 46t57 62.5t85 86q-18 9 -35.5 8.5t-36 -2.5t-38 -1.5t-40.5 11.5q27 34 39.5 54t20.5 30.5t15.5 13.5t23.5 2.5t45 -3t79 -2.5q28 0 38.5 -0.5t15.5 0.5q65 40 113.5 78t83.5 90l-7 4q-39 -14 -60.5 -19.5t-56.5 -5.5q-54 0 -90 14.5t-64.5 31.5t-55.5 31.5t-64 14.5
q-30 0 -56 -15t-26 -35q0 -16 20 -38t55 -38.5t81.5 -20.5t98.5 16h14l2.5 -3t2.5 -4q0 -10 -26.5 -16.5t-65.5 -6.5t-80 10t-75 28t-55.5 43.5t-21.5 56.5q0 16 14 40.5t40.5 47t63.5 38.5t84 16q71 0 113 -26.5t69.5 -58.5t49.5 -58.5t53 -26.5q10 0 27 3t33 9.5t28 17.5
t12 26q1 14 -9 33t-17 37t-2.5 31t34.5 13q12 0 21 -8t16 -19t10.5 -21.5t3.5 -16.5q0 -31 -30 -76t-67 -89t-71 -79.5t-43 -48.5q21 -2 37.5 -2.5t34.5 0t42 1.5t61 1q1 -2 2 -7t1 -10q0 -1 -9.5 -14.5t-21.5 -29t-22.5 -28.5t-13.5 -13l-11.5 -0.5t-27 -1.5t-33 -1.5
t-30.5 -0.5h-123q-5 0 -28.5 -16t-50 -36.5t-49 -38t-25.5 -20.5q-19 -16 -39.5 -32.5t-38 -32.5t-29.5 -31t-13 -27q34 14 60.5 21t59.5 7q63 0 104.5 -12.5t77 -27t72.5 -27t91 -12.5q19 0 39 5.5t36.5 16.5t27 28t10.5 40q0 31 -20 53t-46.5 36t-52.5 20.5t-37 6.5
q-48 0 -103 -18.5t-97 -61.5q-2 1 -5.5 2t-5.5 3q14 38 62.5 62t124.5 24q60 0 103 -15t70 -40.5t39.5 -58.5t12.5 -70z" />
    <glyph glyph-name="a" unicode="a" horiz-adv-x="570" 
d="M550 120q0 -4 -12.5 -24t-29 -43t-34 -41.5t-26.5 -18.5q-6 0 -23 11.5t-37 27.5t-41 33t-35 27q-33 -25 -51 -45t-29 -33.5t-17.5 -20.5t-15.5 -7q-11 0 -39.5 20t-67.5 54q-13 -9 -19.5 -17.5t-11.5 -17t-12.5 -18t-22.5 -21.5q-8 13 -1 26t18.5 26.5t22 28t10.5 29.5
v91q0 45 15 68.5t37.5 36t50 20.5t51.5 21q-25 29 -34.5 57t-16.5 52q-3 11 -17 21t-29.5 20.5t-28 22.5t-12.5 27q0 6 5 14t12.5 16t18 13.5t20.5 5.5q26 0 41 -14.5t23.5 -31.5t11.5 -31.5t4 -14.5q10 0 28.5 13t38 29t36 29t21.5 13q17 0 45.5 -18.5t72.5 -61.5
q21 19 25.5 24.5t11.5 18.5h14q4 -6 6.5 -6.5t2.5 -4.5q0 -5 -8 -12t-18.5 -21t-20 -37.5t-13.5 -60.5q-4 -49 -3 -84t-1 -84q3 -23 3 -40t3 -31t11.5 -24.5t28.5 -19.5q10 8 14 12t5 12q7 -4 13 -7.5t6 -8.5zM317 368q0 55 -14.5 80.5t-32.5 25.5q-3 0 -13 -6t-42 -10v-19
q13 -27 18 -41t12 -26t21 -26t46 -41q6 21 5.5 35t-0.5 28zM317 151v94q0 13 -21.5 29.5t-39.5 26.5q-13 -19 -18.5 -28t-7 -17t-1 -19.5t0.5 -36.5q0 -28 -0.5 -39.5t2 -18.5t10 -14.5t24.5 -28.5q51 33 51 52z" />
    <glyph glyph-name="b" unicode="b" horiz-adv-x="579" 
d="M559 503q-24 -24 -37.5 -37t-20.5 -23t-8.5 -21.5t-1.5 -32.5v-304q-17 -6 -28.5 -8.5t-20.5 -4.5t-17.5 -3.5t-20.5 -6.5q-24 -10 -41.5 -21t-33.5 -21.5t-33.5 -20.5t-42.5 -19l-140 97q-7 -6 -18.5 -20t-22.5 -25t-19 -13t-8 17q0 1 6.5 9.5t14.5 21t15.5 28
t11.5 30.5q0 5 -0.5 12t-1 19t-0.5 31t2 48q3 41 4 74t1 64t-0.5 64t-0.5 74q0 10 -6 17.5t-6 17.5v87q0 30 -10 41t-22 13t-22.5 1t-10.5 5q0 10 18 18.5t55 30.5q1 1 10 8t20 15.5t22.5 15t17.5 6.5q19 0 33 -19t35 -37q12 12 16.5 18t7 10.5t5.5 11t11 19.5
q4 -2 11.5 -3.5t7.5 -6.5q0 -2 -8 -14t-17 -27t-17 -29t-8 -20q0 -34 0.5 -62.5t2 -55.5t2 -55t0.5 -62q9 -5 6.5 -3.5t2.5 -4.5q27 26 41 43.5t22.5 30t14.5 21.5t16 19q22 -11 36.5 -23t27.5 -24.5t27.5 -25.5t35.5 -26q12 10 21.5 22t19 20t20 9.5t23.5 -10.5zM326 98h13
v286q-13 6 -30.5 19.5t-26.5 16.5q-7 -10 -18 -22.5t-12 -25.5q-2 -11 -4 -33t-3 -44.5t-1 -41.5v-23q0 -26 3.5 -42.5t12.5 -30t25 -26.5t41 -33z" />
    <glyph glyph-name="c" unicode="c" horiz-adv-x="443" 
d="M423 518q0 -21 -9 -39.5t-24 -33t-32.5 -22.5t-34.5 -8q-23 0 -41 8t-31.5 20t-24 25.5t-17.5 24.5q0 -39 -2 -71t-3.5 -62.5t-2 -62.5t2.5 -71q0 -2 5.5 -18t17 -34.5t27.5 -34t36 -15.5q2 0 10.5 7.5t20 19t24 25t23.5 26.5q9 -2 14 -4.5t12 -6.5l-182 -188
q-13 5 -42 26t-83 79q-6 -3 -13.5 -10t-16 -14t-18 -11t-19.5 0q10 27 19 40.5t15 26t8.5 30.5t-0.5 56q-3 41 -4 74.5t-1 66v66.5v76q20 0 39.5 3t42 12.5t50.5 28t65 49.5h17q12 -21 26.5 -39t42.5 -18q18 0 23 8.5t4 19.5t-5.5 22t-4.5 16q4 -1 14.5 -8.5t22 -20
t20.5 -29t9 -35.5z" />
    <glyph glyph-name="d" unicode="d" horiz-adv-x="597" 
d="M577 149l-138 -160q-10 5 -27.5 20t-36 33.5t-34.5 37t-24 30.5q-19 -12 -35.5 -31t-30 -37t-25 -31t-20.5 -13q-17 0 -42 27t-82 69q-12 -5 -18 -8.5t-10 -8t-8 -9.5t-10 -13h-16v28q28 27 39 51.5t13 44t-1.5 32.5t-3.5 18q-2 28 -1.5 49t0.5 50q0 13 1 29.5t2 32.5
t1.5 29t0.5 18q0 22 14.5 37t31.5 26.5t31 21t14 20.5q0 2 16.5 16.5t25.5 22.5q11 -5 21 -13.5t22.5 -23t30 -34t44.5 -46.5q5 13 11.5 75.5t-6.5 160.5q0 2 -4 10t-10.5 17t-14 16.5t-14.5 7.5q-9 0 -29.5 -17.5t-45.5 -37.5h-16q-1 4 -3 7t-2 7q0 -2 21.5 18.5t50 48
t58 53t44.5 33.5q8 0 29.5 -23.5t78.5 -73.5q25 10 39.5 29t16.5 23q7 -1 12 -2t14 -1v-17q-29 -25 -44 -42t-21 -31.5t-6 -29v-34.5q0 -61 -1 -111.5t-2.5 -98.5t-3.5 -98.5t-4 -111.5q3 -35 11.5 -64t30.5 -51q13 6 21 15.5t14.5 15.5t13 5.5t16.5 -13.5zM322 185v213
q0 8 -13.5 28t-28.5 31q-13 -13 -25 -22.5t-15 -25.5q-8 -41 -6 -71t1 -70q0 -27 -0.5 -46t3 -34t13 -28t29.5 -29q42 47 42 54z" />
    <glyph glyph-name="e" unicode="e" horiz-adv-x="460" 
d="M440 186l-193 -207q-6 3 -13 8t-21 16.5t-39.5 31.5t-69.5 53l-13 -14t-28.5 -26.5t-29 -17t-13.5 13.5q0 3 9.5 13t21 22.5t21.5 24.5t12 19q2 9 2.5 30.5t0 43t-1.5 37t-1 11.5v240q5 6 9 7t14.5 3t30.5 9.5t57 27.5q33 14 75 20t78.5 -5t61.5 -43.5t25 -95.5
q0 -10 -15.5 -26t-38.5 -35t-50.5 -38.5t-50.5 -36.5t-39 -29t-16 -16q0 -18 7.5 -40t19.5 -41t27 -32t29 -13q6 0 21.5 15.5t32.5 33.5t32.5 33.5t22.5 15.5q9 0 14 -5.5t9 -7.5zM325 350q-29 46 -50 78t-37 45q0 -59 -3.5 -93.5t-3.5 -48.5v-22.5t1.5 -11.5t4 -6t6.5 -7
q8 8 22 19t27 21.5t23 18z" />
    <glyph glyph-name="f" unicode="f" horiz-adv-x="497" 
d="M477 746q0 -18 -5.5 -29t-13.5 -18t-19 -12.5t-22 -13.5h-77q0 6 -2.5 7t-2.5 3t15.5 12.5t15.5 26.5q0 6 -10.5 19t-30.5 13q-19 0 -31 -8t-15 -34q-5 -45 -4.5 -78t4.5 -79q1 -18 15 -22t34.5 -3t44 2.5t44.5 -5.5q-10 -31 -22.5 -49t-17.5 -49h-102v-191q0 -4 -4 -6
t-4 -6q0 -5 6 -4.5t6 -0.5q1 -22 0 -34t1.5 -22t12.5 -21t33 -30q26 15 47.5 45t48.5 51q7 -7 16 -13l-163 -211q-15 7 -32 21.5t-34.5 31t-34.5 33t-31 27.5q-20 -11 -34 -31.5t-38 -42.5h-15q0 3 -3.5 4.5t-3.5 3.5q-1 1 11 16t26.5 33t27 34t12.5 19q2 5 3.5 12.5t2.5 23
t1.5 41t0.5 65.5v157q-26 1 -43 0.5t-43 -0.5q-7 0 -17.5 2t-10.5 12q2 58 35.5 75t78.5 17q1 31 -3 60t6 73q67 57 130 99t128 42q36 0 59 -21t23 -47z" />
    <glyph glyph-name="g" unicode="g" horiz-adv-x="555" 
d="M535 540q0 -6 -6.5 -12t-13.5 -13.5t-13.5 -16t-6.5 -19.5v-460q1 -2 7 -18t12.5 -44.5t6.5 -56.5q0 -37 -18.5 -72t-47.5 -62t-65.5 -43.5t-71.5 -16.5q-51 0 -76 17t-44 37.5t-41 38.5t-66 20v20q35 11 55 26.5t32.5 33t21 34.5t18.5 32q4 -1 25 -19t43.5 -39
t40.5 -39.5t18 -20.5q0 -9 -10.5 -14t-23.5 -10.5t-23.5 -14t-10.5 -24.5q0 -14 14.5 -28t43.5 -14q48 0 73 23t25 57q0 26 -13.5 49.5t-30.5 45t-34 42t-24 41.5q-6 18 -5.5 29t2.5 21t3 20.5t-4 27.5q-21 -15 -37.5 -33.5t-31 -34.5t-28 -26.5t-28.5 -10.5q-6 0 -12 4.5
t-15.5 13.5t-25 23.5t-41.5 35.5q-15 -12 -23.5 -21.5t-15.5 -17.5t-15.5 -16.5t-23.5 -17.5q-2 5 -6 8.5t-4 6.5q0 12 11.5 20.5t24.5 22t24 34t11 56.5v334q4 3 30 9.5t59.5 20t68 35t56.5 54.5q7 -2 31.5 -17.5t52.5 -33.5t51.5 -32.5t27.5 -14.5q10 0 19 10t34 44
q5 -6 9.5 -9t4.5 -5zM331 161v267q0 6 -10.5 15.5t-24 18.5t-26 16t-16.5 9h-10v-259q9 -20 6.5 -36t-3 -30t7 -25.5t36.5 -21.5q2 4 8.5 9.5t13.5 12t12.5 12.5t5.5 12z" />
    <glyph glyph-name="h" unicode="h" horiz-adv-x="603" 
d="M583 125q0 -3 -15.5 -22t-35.5 -41.5t-38.5 -40.5t-24.5 -18q-7 0 -18 6.5t-25 17t-29.5 22t-30.5 22.5q-18 -14 -26.5 -23.5t-23.5 -22.5h-15q-1 3 -4.5 5t-3.5 5t10 11.5t22 20.5t22 26.5t10 29.5v294q0 2 -4 10.5t-10.5 17.5t-14 16t-14.5 7q-26 0 -37.5 -23.5
t-15.5 -56t-2.5 -66.5t1.5 -56q0 -16 -3 -33.5t-1 -36.5t12.5 -41t37.5 -47q-15 -15 -34.5 -27t-36.5 -24.5t-30 -27.5t-14 -36q-21 0 -26.5 4.5t-16.5 17t-37.5 34t-90.5 55.5q34 27 50.5 36.5t23 21t7 34.5t1.5 76q1 66 3 120t3.5 105.5t1.5 106t-1 120.5q0 5 -8 14
t-13 14q-12 -10 -18.5 -19t-12.5 -20q-11 1 -19 5.5t-8 10.5q0 9 13 23t32.5 33t41 41.5t37.5 49.5q25 -11 36.5 -19.5t20 -17l19 -19t31.5 -26.5q16 13 31.5 26.5t23.5 27.5h16l2 -3.5t2 -4.5q0 -6 -11 -18.5t-24 -27.5t-24 -29t-12 -22q-5 -53 -5.5 -93t0.5 -93
q1 -31 5.5 -50t4.5 -23q21 11 36 24.5t28 27.5t26.5 29t33.5 29q14 -8 25 -30t27 -45t37 -31.5t28 -19.5q7 -10 7 -22t-3 -29.5t-6.5 -41t-3.5 -56.5v-82q0 -57 8 -81t24 -37q18 8 18.5 9.5t5.5 10.5q7 -2 14.5 -5.5t7.5 -8.5z" />
    <glyph glyph-name="i" unicode="i" horiz-adv-x="363" 
d="M297 777q0 -5 -15.5 -19.5t-37 -31.5t-45.5 -32.5t-41 -21.5q-18 28 -33.5 42.5t-26.5 22.5t-17 13t-6 14q0 1 19 17.5t43 36t45.5 35.5t26.5 16q3 0 17 -14t29.5 -30.5t28.5 -31.5t13 -16zM343 128q0 -6 -19.5 -26.5t-44.5 -42.5t-47 -39.5t-26 -17.5q-19 0 -38 20
t-60 57q-17 -11 -30 -23t-26 -28h-26q0 3 -3 6t-3 6q0 2 13 8.5t28.5 23.5t28 47t12.5 78v224q0 1 -6.5 16t-19.5 15q-7 0 -14.5 -6.5t-16.5 -13.5h-14q-1 5 -3 8.5t-2 8.5q54 53 89 85t43 37l12.5 -10t27.5 -23t28.5 -23.5t16.5 -10.5q9 0 18.5 11t15.5 15h20
q1 -11 -4.5 -20.5t-13 -17.5t-15 -15t-10.5 -13q0 -1 -0.5 -17.5t-1.5 -42.5t-2 -59t-1 -68q0 -17 -0.5 -43.5t2 -52t11 -44t26.5 -18.5q8 0 13 6.5t16 16.5h19q7 -7 7 -14z" />
    <glyph glyph-name="j" unicode="j" horiz-adv-x="402" 
d="M361 753q0 -1 -14.5 -17.5t-33 -36t-36 -35t-23.5 -15.5q-7 0 -24.5 14.5t-36.5 33t-33 35t-13 19.5q0 2 15.5 17t35 32.5t36 32t17.5 14.5q5 0 23 -13.5t37.5 -30.5t34.5 -32t15 -18zM382 537q0 -7 -10 -18.5t-22 -26t-22.5 -30.5t-11.5 -33q-2 -54 -4 -98.5t-3 -87
t-1 -87t2 -99.5q0 -1 8.5 -24t19.5 -51.5t19.5 -54t8.5 -31.5q1 -36 -11.5 -70.5t-36 -62.5t-55.5 -45t-71 -17q-27 0 -57.5 14t-56 34.5t-42 43t-16.5 39.5q0 16 10.5 26t24.5 19.5t28 21t23 29.5h21q23 -30 41.5 -46.5t31 -25.5t19 -13t6.5 -10q0 -10 -12.5 -15.5
t-27 -11.5t-26.5 -15t-12 -25q0 -17 20 -29.5t34 -12.5q38 0 65 28.5t27 70.5q0 47 -21.5 76.5t-47 56.5t-47 58.5t-20.5 81.5q1 47 2 85t1.5 74t-1 74t-5.5 85q0 2 -3 8.5t-14 18.5q-23 -18 -37.5 -36t-24.5 -18q-6 0 -12.5 4t-6.5 9q58 73 97 120.5t52 61.5
q38 -21 55 -43.5t46 -50.5q16 14 28.5 31.5t26.5 31.5q9 -4 15 -5.5t6 -8.5z" />
    <glyph glyph-name="k" unicode="k" horiz-adv-x="649" 
d="M629 154q-2 -2 -18 -25.5t-37 -53t-43 -57.5t-37 -40q-20 13 -32 20.5t-21.5 13.5t-20 13t-28.5 20q-11 -7 -15 -11.5t-7.5 -9.5t-10 -11.5t-21.5 -15.5q-9 9 -5.5 15.5t11.5 22t16.5 45.5t9.5 87q0 8 -1 26.5t-6.5 37t-18 32.5t-36.5 14q-15 0 -31.5 -12t-16.5 -21
q0 -47 10 -72.5t22.5 -38.5t23 -19t10.5 -15l-11.5 -7.5t-30 -22.5t-42.5 -38t-49 -53q-62 15 -86.5 36.5t-27.5 46t8 50.5t19 51q5 14 0.5 31t-4.5 39q0 4 2 7.5t2 9.5q3 38 3.5 69t0.5 61v61t1 70q2 98 -7 145.5t-21 59.5q-6 -2 -17 -11t-21 -16t-17.5 -7t-7.5 16
q0 7 21 27.5t42 53.5q15 23 22.5 36.5t12.5 21t8 10t9 2.5q1 0 9.5 -2.5t23.5 -10.5t34.5 -24.5t41.5 -43.5q11 4 17.5 10.5t13 14t14.5 14.5t21 12q0 -4 3 -6t3 -6q0 -6 -8.5 -14t-19.5 -27.5t-19.5 -55t-8.5 -96.5l10 -137q38 19 63 48.5t59 73.5h16l136 -207
q-6 -12 -23.5 -21.5t-39.5 -18.5t-44.5 -17.5t-39.5 -17.5q61 -43 85 -78.5t33.5 -61t16.5 -39.5t34 -14q10 0 15 8.5t10 16.5t13 12t25 -6zM383 343q-7 18 -18 36.5t-24 33.5t-25 25.5t-20 13.5q-20 -20 -24.5 -28t-3.5 -13t3 -13t-5 -27v-76q38 13 69 27.5t48 20.5z" />
    <glyph glyph-name="l" unicode="l" horiz-adv-x="386" 
d="M366 143q0 -50 -15 -75t-39 -33.5t-53 -5t-57 11.5t-51 16t-34 8q-4 0 -14.5 -8.5t-28.5 -19.5h-16q-1 4 -3.5 6t-2.5 5q0 7 9 15t20 17t20 19t9 22q1 73 0 153t-3 156t-3.5 141.5t-1.5 109.5q0 16 -6.5 19t-16.5 13q-11 -6 -15 -9.5t-7 -7t-7 -8t-13 -11.5q-7 7 3.5 32
t28 52.5t38 49.5t33.5 22q18 0 37.5 -18t62.5 -56q20 17 28 29.5t24 5.5q-12 -29 -21 -39.5t-9 -23.5q-2 -71 -4 -129.5t-3.5 -114.5t-1.5 -115t3 -131q1 -36 5 -56t11 -31.5t15.5 -18t18.5 -14.5q9 8 19.5 17.5t19.5 15t15 4t6 -14.5z" />
    <glyph glyph-name="m" unicode="m" horiz-adv-x="852" 
d="M832 137q-40 -48 -69.5 -86t-46.5 -71q-9 2 -14.5 4.5t-16 10.5t-30 24t-57.5 45q-12 -10 -18 -16t-10.5 -11.5t-9.5 -12t-17 -16.5q-27 14 -21 23t22.5 26t31.5 49t6 93q0 29 -0.5 52.5t-0.5 45.5t-1 45.5t-3 52.5q-1 19 -15 36t-16 18q-28 -27 -43 -44.5t-22 -34
t-7.5 -36t-0.5 -50.5q0 -50 6.5 -81t12.5 -52.5t9.5 -37t-3 -33t-25.5 -41t-57 -61.5q-36 31 -67.5 56.5t-57.5 45.5q-18 -10 -54 -36t-67 -66h-26q-14 41 -32.5 59t-35.5 26t-28.5 12t-11.5 16q0 5 10 12t21.5 18t21 25t9.5 32v172q0 2 -1.5 13t-4.5 24.5t-6.5 26.5
t-6.5 20q-14 -8 -18.5 -14.5t-12.5 -17.5h-17q-1 3 -6 6.5t-5 7.5q1 10 14 24.5t31 32.5t36.5 39.5t28.5 46.5h19q30 -18 45.5 -33.5t24 -30t13 -28.5t13.5 -30q9 5 28 23t39 39.5t36.5 41.5t21.5 29q28 -9 49 -29.5t35.5 -42.5t23.5 -40.5t13 -23.5q42 40 64 65t31.5 39
t10.5 19t1 6q4 0 5.5 2t8.5 2q13 0 29 -12.5t31 -28t27.5 -30.5t16.5 -20q18 13 27 28t34 31q15 0 9 -11t-19.5 -35.5t-27.5 -65.5t-14 -101q0 -50 0.5 -83t5 -55.5t14 -37t27.5 -27.5q7 5 17 13.5t19.5 14t16.5 4.5t7 -14zM336 199q-1 28 0 51.5t1.5 46t0 46t-3.5 52.5
q-2 17 -8.5 25t-22.5 21q-24 -29 -37.5 -43t-13.5 -24v-224q0 -5 8.5 -21t25.5 -30q22 14 31.5 23.5t12 19.5t2.5 23t4 34z" />
    <glyph glyph-name="n" unicode="n" horiz-adv-x="614" 
d="M594 130l-124 -155q-23 9 -47 40t-62 55q-4 -4 -17 -18t-27.5 -26t-25.5 -16t-11 12q0 4 12.5 13t28 30.5t28 59t12.5 99.5q0 49 -1.5 91t-6 73t-12 49t-20.5 18q-25 0 -49 -44.5t-24 -124.5q0 -53 8.5 -88.5t18 -57.5t18 -31.5l8.5 -9.5q-47 -49 -79 -79t-48 -35
q-12 0 -14.5 3.5l-10 14t-27 31t-66.5 54.5q1 2 12 10t22 24t18.5 39t2.5 55q-1 46 -1 78t-4 77q-2 15 -2.5 25t-2.5 18t-7.5 15t-15.5 16q-8 -8 -18 -15.5t-19 -11.5t-15 -1t-6 16q0 5 15 21t34.5 37t40.5 43t33 37q45 -12 66.5 -29t30.5 -35t11.5 -35.5t8.5 -30.5
q32 22 60 57.5t68 72.5q14 -6 31.5 -15.5t34 -19.5t30.5 -18.5t21 -13.5q12 10 20 16.5t19 14.5h17v-16q-23 -21 -34 -36.5t-15.5 -29.5t-5 -28.5t-1.5 -33.5q-2 -36 -4 -66t-3.5 -59t-1.5 -59t3 -67q4 -21 12 -26t18.5 -0.5t22.5 15.5l24 22q6 -6 10.5 -10t7.5 -11z" />
    <glyph glyph-name="o" unicode="o" horiz-adv-x="511" 
d="M491 558q-3 -7 -8 -14t-11 -17t-10.5 -25t-5.5 -38q-1 -32 -2 -57.5t-1.5 -50t-1 -50.5t-0.5 -57q8 -12 8.5 -25t0 -28.5t2 -34.5t13.5 -42q-62 -31 -104 -53.5t-73.5 -36t-56.5 -17t-53 4t-63.5 27t-88.5 51.5v330q0 5 -5 14t-11 25q19 7 37.5 9.5t39.5 10.5
q70 24 107 42.5t55 30.5t24 18.5t13 6.5q4 0 42.5 -21.5t86.5 -48.5q18 11 24.5 21t8.5 17.5t2 12t6 4.5t10.5 -3t14.5 -6zM297 86v331q-33 25 -54 37t-43 26l-7 -181q6 -47 6.5 -72t1 -38t3.5 -19t12.5 -14.5t28.5 -23.5t52 -46z" />
    <glyph glyph-name="p" unicode="p" horiz-adv-x="576" 
d="M556 535q-4 -15 -11.5 -24t-15 -22.5t-13 -37t-5.5 -66.5v-259q0 -10 -19 -33t-45.5 -48.5t-54 -48t-44.5 -31.5q-31 37 -50.5 64t-53.5 52q-6 -9 -8 -15.5t-2 -14.5t0.5 -20t0.5 -33q0 -58 2 -86t10 -42.5t23 -24.5t42 -33q-7 -6 -21 -14.5t-31 -22t-36 -34.5t-36 -52
q-14 3 -24 11t-24 21t-37 31.5t-62 42.5q21 31 32 38.5t15 14t4 22.5v64v444q0 10 -8.5 27t-17.5 27q-12 -7 -17.5 -14.5t-7.5 -8.5h-15q-2 4 -4 6.5t-2 7.5q41 60 70 97.5t45 42.5q41 0 70 1.5t53.5 2.5t49.5 2.5t58 1.5q13 0 38 -22.5t86 -69.5q10 6 18 16t15.5 20
t15.5 16t17 4zM352 193v207q-17 8 -25.5 18t-25.5 19q-9 -15 -19.5 -26.5t-20 -21.5t-16 -19.5t-6.5 -19.5v-86q0 -44 0.5 -71.5t5.5 -45.5t15.5 -28.5t29.5 -20.5q11 10 22 17t19.5 16t14.5 23t6 39z" />
    <glyph glyph-name="q" unicode="q" horiz-adv-x="571" 
d="M551 547q-6 -14 -15.5 -26.5t-19.5 -24t-19 -21.5t-12 -19q1 -26 1 -49.5t-1 -43.5q-4 -68 -6 -124t-3 -109.5t-1 -109.5v-124q0 -11 9.5 -23t21 -22.5t20.5 -19t9 -12.5q0 -5 -7.5 -8.5t-19 -9t-24.5 -14t-25 -21.5q-16 -18 -25 -28.5t-14 -16t-8.5 -7.5t-7.5 -2
q-10 0 -15.5 4t-11.5 11t-16.5 18t-30.5 24q-3 2 -20 12.5t-37 24.5t-20 16q0 4 10 12t22 19.5t23 26t13 32.5q5 40 3.5 68.5t1.5 68.5q0 13 0.5 23.5t-12.5 32.5q-14 -9 -27 -26.5t-25.5 -35t-24.5 -30.5t-25 -13t-26 11.5t-27.5 26.5t-31.5 30t-38 22q-19 -19 -24 -27.5
t-6.5 -13t-4 -7.5t-15.5 -11q-6 4 -12.5 8.5t-6.5 8.5q0 3 8.5 14t19 25.5t20 32t10.5 34.5q3 36 5 66t2.5 58t0.5 58t-2 66q-1 7 -4.5 17.5t-6.5 21.5t-5 20t-1 12q5 6 17 10t31.5 9t47.5 14t64 26q38 18 59.5 36.5t45.5 27.5l143 -103q9 6 18 16t18.5 19.5t19.5 15.5t20 3
zM326 379q0 30 -26 58.5t-59 42.5q0 -45 -3 -82t-5.5 -73t-3.5 -73.5t3 -82.5q0 -5 15 -20t31 -23q16 20 28.5 36t14.5 38q4 46 4.5 92.5t0.5 86.5z" />
    <glyph glyph-name="r" unicode="r" horiz-adv-x="467" 
d="M447 480q-28 -44 -46.5 -71.5t-29.5 -31.5q-8 0 -13 5t-12 14.5t-19 23.5t-34 31q-14 -8 -25 -21.5t-11 -14.5v-224q0 -15 14.5 -33.5t31.5 -31.5q20 14 30 27t27 38h14q5 -7 7.5 -8.5t2.5 -5.5q0 -13 -40 -62t-101 -122q-11 4 -19.5 12t-22 22t-35.5 35.5t-61 52.5
q-22 -13 -26 -25t-18 -25h-15q-2 5 -3.5 8.5t-1.5 7.5q0 9 8 18t17.5 22.5t18.5 33.5t12 51q4 44 3.5 75t1.5 75q2 30 -1.5 53t-29.5 46q-5 -7 -13.5 -14.5t-17 -12t-14.5 -3.5t-6 11q0 6 19 31t43 53.5t44.5 51t23.5 22.5q12 0 18.5 -6.5t15.5 -19.5t26.5 -32.5t51.5 -45.5
q28 16 72 111q13 -4 32 -19.5t37 -34.5t31 -38t13 -29z" />
    <glyph glyph-name="s" unicode="s" horiz-adv-x="512" 
d="M492 579q0 -5 -9.5 -29t-28.5 -57t-46 -70.5t-63 -70.5q33 0 60 8t43 13h35v-265q-5 0 -33.5 -6t-67 -20t-80.5 -36.5t-75 -56.5h-26q-3 32 -27 62.5t-68 30.5q-20 0 -27 -8.5t-7 -20.5t3 -25.5t3 -24.5q0 -18 -7.5 -21.5t-24.5 -3.5q-22 0 -24 10t-2 25q0 50 64 126
q0 1 21 21.5t45.5 44.5t43 44t11.5 20q-1 0 -18.5 -6.5t-39 -14.5t-41 -14.5t-24.5 -6.5q-6 0 -16 3t-10 11q0 120 3.5 174.5t3.5 55.5q5 16 27 21.5t58.5 15t85 29.5t105.5 64q15 -7 19 -16.5t8 -21t13.5 -25t36.5 -28.5h11q11 21 13.5 39t4 31.5t5 21t15.5 7.5
q14 0 20.5 -12.5t6.5 -17.5zM361 427q-1 1 -39 15.5t-90 31.5v-161q24 3 47 20t41 36.5t29.5 36.5t11.5 21zM314 139q0 36 1.5 50.5t1.5 25t-1.5 27t-6.5 58.5q-13 -6 -37.5 -26t-48.5 -42.5t-42.5 -41t-20.5 -19.5q48 0 68.5 -1t31.5 -4t20 -9.5t34 -17.5z" />
    <glyph glyph-name="t" unicode="t" horiz-adv-x="415" 
d="M395 192q-37 -58 -71 -104t-79 -89q-9 6 -17.5 14t-20 19.5t-29 26t-44.5 32.5h-12l-31 -36h-20v20q17 21 25.5 32t12.5 20t5 21t4 37q3 27 3 49.5t-0.5 43.5t-1 43t1.5 49q3 40 -1 58.5t-14 24.5t-25.5 4t-36.5 -2q-7 0 -13.5 2.5t-10.5 4.5q19 40 26.5 68.5t10.5 29.5
q9 8 18.5 9t18.5 0t16.5 -1t11.5 5q8 8 8 14.5t-2 12.5t-5 11.5t-1 11.5q1 3 9 8.5t19 13.5t23.5 17.5t21.5 19.5q24 27 38 63.5t24 52.5q23 -13 21.5 -44.5t-1.5 -62.5v-124h118v-22q-21 -29 -27.5 -54t-9.5 -26q-7 -4 -17.5 -3t-21 3t-20.5 3t-17 -3q-8 -5 -11.5 -35
t-4.5 -68.5t-0.5 -76.5t0.5 -59q0 -15 7.5 -28t17.5 -22.5t19 -15.5t12 -6t19 10t32 41h17q1 -5 3 -7t2 -6z" />
    <glyph glyph-name="u" unicode="u" horiz-adv-x="579" 
d="M559 178v-20q-33 -36 -52 -59.5t-30.5 -39.5t-19 -26.5t-17.5 -19.5q-17 7 -24 13t-16.5 17t-27 27.5t-55.5 44.5q-11 -6 -25.5 -22.5t-29 -33.5t-28 -30t-22.5 -13q-15 0 -39 18t-76 64q-11 -7 -16.5 -11t-9.5 -8t-7.5 -9.5t-11.5 -14.5h-17q-3 6 -7 10.5t-4 6.5
q21 19 32.5 45t18.5 85q5 47 5.5 80t1.5 79q0 44 -9.5 68t-21 36.5t-21.5 18.5t-10 15q0 3 12 20.5t29.5 37.5t36.5 36t32 16q4 0 21 -7.5t35.5 -29t33.5 -60t15 -100.5v-116q0 -35 -4.5 -56.5t-4 -37.5t11 -31t39.5 -36q14 8 21.5 14.5t11 14.5t5 19.5t2.5 29.5
q4 49 4.5 85t0.5 86q0 30 -5.5 49.5t-12.5 31.5t-12.5 18t-5.5 9q0 2 13 20t30.5 40t36 39.5t29.5 17.5q9 0 30.5 -19.5t46.5 -48.5q1 -1 7.5 -9t13.5 -17t13 -17t6 -9q0 -3 -6 -9.5t-14 -14.5t-14 -19t-6 -23v-241q0 -14 31 -39q17 10 22.5 17.5t17.5 17.5h16z" />
    <glyph glyph-name="v" unicode="v" horiz-adv-x="524" 
d="M504 504q1 -10 -11 -19t-26.5 -22.5t-27 -35t-12.5 -56.5q0 -1 -0.5 -14t-2 -32t-3 -41t-3.5 -41q-4 -51 -15.5 -84.5t-29.5 -60.5t-41.5 -52t-51.5 -59h-13q-3 5 -20 21.5t-39 35.5t-44.5 36.5t-37.5 24.5q-8 -6 -12.5 -12t-10 -13t-14.5 -14.5t-26 -15.5q-1 2 -3 5
t-2 8q0 7 7.5 17t17 21.5t17.5 23.5t9 23q2 40 3 72t1.5 63t0.5 63t1 71q-18 13 -27 26t-25 13q-6 0 -8.5 -5t-11.5 -13h-16q0 19 14.5 42.5t34 45t38 39t26.5 25.5q53 -27 78 -56.5t34 -60.5t7.5 -64t-1.5 -66v-163q0 -4 22 -28t55 -43q38 29 47 62t9 53v170
q0 8 -13.5 22.5t-30 29.5t-30 27.5t-13.5 16.5q0 2 11 11.5t26.5 23.5t32.5 30.5t29 32.5q6 -2 23 -15.5t34.5 -28.5t30.5 -27.5z" />
    <glyph glyph-name="w" unicode="w" horiz-adv-x="768" 
d="M748 485q0 -9 -12 -18.5t-27.5 -23.5t-29.5 -34t-16 -50q0 -61 -8 -109t-27 -91t-50.5 -84.5t-78.5 -90.5q-16 6 -27.5 18.5t-26.5 31t-38 42.5t-60 53q-15 -8 -32.5 -29t-34 -43.5t-31.5 -39.5t-27 -17q-6 0 -18.5 9t-30 23.5t-38 33t-42.5 37.5q-13 -14 -27 -28.5
t-23 -27.5h-17q0 4 -3 3.5t-3 4.5q0 4 10.5 13.5t23 27t24.5 43.5t15 62q5 47 4 80.5t0 80.5q1 16 -1.5 32t-9 28t-17 18t-26.5 1h-17q0 4 -3 5t-3 5q0 1 10 15.5t26 35.5t38 45t46 44q66 -46 89.5 -88.5t25.5 -87t-7.5 -93t-9.5 -105.5q0 -25 2 -37.5t7.5 -21t15.5 -16.5
t25 -24q17 7 30 23t21.5 46.5t12.5 77t4 113.5q0 34 -4.5 53.5t-12 32t-17 20.5t-19.5 18q33 32 52.5 50.5t30 29t16 15t10.5 7.5q0 -20 13 -41t28 -42.5t28 -43t13 -40.5v-256q0 -11 13 -28t49 -48q36 21 51.5 49.5t19.5 57t1.5 52.5t-2.5 35q0 48 -0.5 70t-8.5 35.5
t-26.5 26.5t-55.5 43l113 113q8 -5 24.5 -21.5t33 -34.5t29.5 -32z" />
    <glyph glyph-name="x" unicode="x" horiz-adv-x="540" 
d="M520 191l-128 -187q-34 12 -60 36t-45.5 50t-33.5 50.5t-25 37.5q-15 -18 -24 -38.5t-18.5 -43t-22.5 -47.5t-37 -52q-4 1 -21 16.5t-36 34.5t-34 36.5t-15 23.5q33 52 53 83t28 36q13 0 26 -22.5t43 -50.5q10 8 23 31.5t13 40.5q0 1 -9 29t-26.5 65.5t-43 74.5t-58.5 56
q-7 -10 -11.5 -24.5t-14.5 -14.5q-17 0 -13 19t17 43t29 47t22 32q2 1 7 9.5t11.5 18t13 17t11.5 7.5q22 0 45.5 -25t44.5 -56.5t36.5 -60.5t20.5 -36q16 11 30 41t27 62t25.5 57t25.5 25q8 0 23.5 -16t32 -36.5t28.5 -39.5t12 -26q0 -4 -8.5 -22t-20.5 -38t-25 -38t-21 -23
q-10 8 -28 29.5t-45 42.5q-2 -4 -9.5 -24t-12.5 -35l-6 -18q0 -1 9.5 -30.5t27 -67t41.5 -73t54 -47.5q7 6 20.5 24t25.5 32h20l1 -5t5 -10z" />
    <glyph glyph-name="y" unicode="y" horiz-adv-x="602" 
d="M560 557h22q-3 -13 -10.5 -26t-16.5 -24t-16.5 -20.5t-9.5 -15.5q-3 -7 1 -31t4 -66v-76t-5 -77q-6 -67 -54.5 -108t-135.5 -69q-78 -26 -130 -35.5t-83 -14t-44 -10t-13 -22.5q0 -7 16 -19.5t49 -12.5q47 0 90.5 7t80.5 15t64.5 15t42.5 7q21 0 45 -7t44 -21t33.5 -35
t13.5 -49q0 -39 -26.5 -66.5t-63 -45t-74.5 -25.5t-61 -8q-14 0 -40.5 3t-56 10.5t-56 21t-40.5 33.5v11q20 -5 38 -14.5t39 -18.5t48 -16t64 -7q18 0 46.5 6.5t55.5 17t46.5 25t19.5 29.5q0 28 -25.5 32t-68.5 -2t-98.5 -16.5t-116.5 -10.5q-24 0 -52 5t-51 16.5t-39 30
t-16 46.5q0 31 8 46t20 23t26.5 12t27 12t20.5 24t8 48v331q0 12 -9.5 20t-20.5 16q-16 -12 -22.5 -17.5t-31.5 -3.5v15q43 43 68 71.5t40 47.5t24 30.5t18 21.5h22q0 -20 -4.5 -29t-8 -14t-4 -9t7.5 -14t26.5 -29t52.5 -55q20 10 39.5 29t37.5 41t35 45.5t33 43.5
q7 -4 15 -6.5t8 -10.5q0 -13 -11.5 -20t-11.5 -19q0 -9 18.5 -23.5t57.5 -44.5q12 7 18.5 13.5t11.5 13t9 13.5t12 16zM375 305v122q-4 2 -17 11.5t-29 16.5q-10 -19 -20 -26t-17 -17q-1 -4 -2.5 -58t-11.5 -161q-6 -68 5 -128q33 7 51 16.5t27 34t11.5 69t2.5 120.5z" />
    <glyph glyph-name="z" unicode="z" horiz-adv-x="501" 
d="M481 223q0 -6 -6 -14.5t-15.5 -22.5t-21.5 -35t-24 -53q-1 -4 -8 -21.5t-18 -37t-23.5 -35t-24.5 -15.5q-10 0 -28.5 23.5t-43.5 51.5t-55.5 51.5t-63.5 23.5q-13 0 -31 -8.5t-35 -22t-28 -30.5t-11 -33q0 -10 12.5 -27.5t38.5 -17.5q14 0 34 10t20 20q-17 24 -27 33v11
q10 5 13 5q34 0 34 -42q0 -25 -19.5 -44t-54.5 -19q-41 0 -58 21t-17 50q0 38 25 77.5t55 72.5t56 56.5t30 28.5q-26 5 -43 4t-30 -2v14q25 28 46 29t45 2.5t55.5 17t79.5 72.5q-5 0 -6 3t-3 3q-5 0 -33 -8.5t-74 -8.5q-33 9 -61 16.5t-54 11.5q-2 -8 -4.5 -16.5
t-12.5 -19.5q-25 8 -22 22.5t19 38.5t38 60.5t37 88.5h15q10 -14 25.5 -34.5t37 -39t47.5 -32t57 -13.5q33 0 45.5 12t14.5 26.5t-2 27l-4 12.5q0 7 9.5 20.5t24.5 13.5q13 0 21 -7.5t12 -17.5t5 -19t1 -11q0 -21 -21.5 -53.5t-48.5 -65.5t-51 -60t-28 -36q22 -5 38.5 -4.5
t28 2t17.5 1.5t6 -5q0 -21 -20 -28.5t-45.5 -8.5t-49.5 1t-32 0q-55 -43 -91.5 -72t-44.5 -45q18 8 53 19t83 11q60 0 96.5 -15.5t45.5 -15.5q13 0 20.5 17.5t33.5 48.5q6 -3 12.5 -4.5t6.5 -9.5z" />
    <glyph glyph-name="quoteleft" unicode="&#x2018;" 
d="M240 789q0 -8 -14.5 -17.5t-31.5 -19t-31.5 -18.5t-14.5 -16q0 -1 11.5 -17t41.5 -52v-23h-31q-35 56 -63 85.5t-47.5 45t-29.5 24.5t-10 22q0 35 34.5 51t75.5 14.5t75.5 -21.5t34.5 -58z" />
    <glyph glyph-name="quoteright" unicode="&#x2019;" horiz-adv-x="258" 
d="M238 809q0 -5 -4.5 -10t-15 -14.5t-28.5 -25t-45 -41.5q-26 -24 -39 -41t-19.5 -27t-10 -14.5t-10.5 -4.5q-18 0 -18 17q0 3 8.5 14.5t18.5 25t18.5 25.5t8.5 15q0 12 -13 20t-28 14.5t-28 14t-13 18.5q45 38 74.5 61.5t39.5 27.5q44 -32 72 -51t32 -24z" />
    <glyph glyph-name="quotedblleft" unicode="&#x201c;" horiz-adv-x="523" 
d="M240 789q0 -8 -14.5 -17.5t-31.5 -19t-31.5 -18.5t-14.5 -16q0 -1 11.5 -17t41.5 -52v-23h-31q-35 56 -63 85.5t-47.5 45t-29.5 24.5t-10 22q0 35 34.5 51t75.5 14.5t75.5 -21.5t34.5 -58zM503 785q0 -8 -14.5 -17.5t-32 -19t-32 -18.5t-14.5 -16q0 -1 12 -17t42 -52v-23
h-31q-36 56 -63.5 85.5t-47 45t-29.5 24.5t-10 22q0 35 34.5 51t75.5 14t75.5 -22t34.5 -57z" />
    <glyph glyph-name="quotedblright" unicode="&#x201d;" horiz-adv-x="497" 
d="M238 809q0 -5 -4.5 -10t-15 -14.5t-28.5 -25t-45 -41.5q-26 -24 -39 -41t-19.5 -27t-10 -14.5t-10.5 -4.5q-18 0 -18 17q0 3 8.5 14.5t18.5 25t18.5 25.5t8.5 15q0 12 -13 20t-28 14.5t-28 14t-13 18.5q45 38 74.5 61.5t39.5 27.5q44 -32 72 -51t32 -24zM477 806
q0 -5 -4.5 -10t-15 -14.5t-28.5 -25t-45 -41.5q-26 -24 -39 -41t-19.5 -27t-10 -14.5t-10.5 -4.5q-18 0 -18 17q0 3 8.5 14.5t19 25t19 25.5t8.5 15q0 12 -13 20t-28 14.5t-28 14t-13 18.5q44 38 73 61.5t40 27.5q43 -31 71.5 -51t32.5 -24z" />
    <glyph glyph-name="FLW160" unicode="&#xa0;" horiz-adv-x="406" 
 />
  </font>
</defs>
</svg>
